<svg width="38" height="38" viewBox="0 0 38 38" fill="none" xmlns="http://www.w3.org/2000/svg">
<g clip-path="url(#clip0_557_799)">
<path d="M19 38C29.4934 38 38 29.4934 38 19C38 8.50659 29.4934 0 19 0C8.50659 0 0 8.50659 0 19C0 29.4934 8.50659 38 19 38Z" fill="white"/>
<path d="M18.9999 0C11.4672 0 4.9585 4.38373 1.88525 10.7392H36.1146C33.0414 4.38373 26.5326 0 18.9999 0V0Z" fill="black"/>
<path d="M18.9999 38C11.4672 38 4.9585 33.6163 1.88525 27.2608H36.1146C33.0414 33.6163 26.5326 38 18.9999 38V38Z" fill="#496E2D"/>
<path d="M37.1028 13.2174H0.89723C0.315207 15.0409 0 16.9835 0 19C0 21.0164 0.315207 22.9591 0.89723 24.7826H37.1027C37.6848 22.9591 38 21.0164 38 19C38 16.9835 37.6848 15.0409 37.1028 13.2174Z" fill="#A2001D"/>
<path d="M24.9163 8.78015L22.6662 7.74161L19 16.043L15.3337 7.74161L13.0836 8.78015L17.6353 19L13.0836 29.2198L15.3337 30.2584L19 21.9569L22.6662 30.2584L24.9163 29.2198L20.3646 19L24.9163 8.78015Z" fill="#F0F0F0"/>
<path d="M20.5282 9.75895C19.6571 8.80768 18.9999 8.26084 18.9999 8.26084C18.9999 8.26084 18.3427 8.80761 17.4717 9.75895V28.2409C18.3427 29.1923 18.9999 29.7392 18.9999 29.7392C18.9999 29.7392 19.6571 29.1924 20.5282 28.241V9.75895Z" fill="#F0F0F0"/>
<path d="M14.8696 13.3032V24.6967C15.7901 26.3276 16.9167 27.6644 17.761 28.5508V9.44916C16.9167 10.3354 15.79 11.6723 14.8696 13.3032V13.3032Z" fill="#A2001D"/>
<path d="M23.1305 13.3032C22.2099 11.6722 21.0834 10.3354 20.2391 9.44916V28.5508C21.0834 27.6644 22.2099 26.3276 23.1305 24.6967V13.3032Z" fill="#A2001D"/>
<path d="M23.1304 13.3032V24.6967C24.0622 23.0454 24.7826 21.0927 24.7826 19C24.7826 16.9073 24.0622 14.9546 23.1304 13.3032Z" fill="black"/>
<path d="M14.8696 13.3032V24.6967C13.9378 23.0454 13.2174 21.0927 13.2174 19C13.2174 16.9073 13.9378 14.9546 14.8696 13.3032Z" fill="black"/>
</g>
<defs>
<clipPath id="clip0_557_799">
<rect width="38" height="38" fill="white"/>
</clipPath>
</defs>
</svg>
