<svg width="38" height="38" viewBox="0 0 38 38" fill="none" xmlns="http://www.w3.org/2000/svg">
<g clip-path="url(#clip0_557_812)">
<path d="M19 38C29.4934 38 38 29.4934 38 19C38 8.50659 29.4934 0 19 0C8.50659 0 0 8.50659 0 19C0 29.4934 8.50659 38 19 38Z" fill="white"/>
<path d="M5.56496 32.4351C-1.85499 25.0151 -1.85499 12.9849 5.56496 5.56492C5.56444 5.56574 16.5218 19 16.5218 19L5.56496 32.4351Z" fill="black"/>
<path d="M16.5218 19L2.52001 9.53807C2.0859 10.2927 1.70308 11.0803 1.37415 11.8955L8.4627 19.0001L1.37437 26.105C1.70301 26.9197 2.08546 27.7067 2.51927 28.4608L16.5218 19Z" fill="#FFDA44"/>
<path d="M37.8391 16.5218H16.5212L5.56473 5.56522C4.38406 6.74589 3.35828 8.08116 2.51991 9.53815L11.9634 19L2.51917 28.4607C3.35754 29.918 4.38376 31.2537 5.56473 32.4347L16.5212 21.4782H37.8391C37.9447 20.667 38 19.8399 38 19C38 18.1601 37.9447 17.333 37.8391 16.5218V16.5218Z" fill="#6DA544"/>
<path d="M7.43213 34.0721C10.6361 36.5348 14.6466 38 19 38C27.7785 38 35.1652 32.0461 37.3455 23.9566H17.5478L7.43213 34.0721Z" fill="#0052B4"/>
<path d="M37.3455 14.0434C35.1652 5.9539 27.7785 0 19 0C14.6466 0 10.6361 1.46515 7.43213 3.92788L17.5477 14.0434H37.3455Z" fill="#D80027"/>
</g>
<defs>
<clipPath id="clip0_557_812">
<rect width="38" height="38" fill="white"/>
</clipPath>
</defs>
</svg>
