<svg width="38" height="38" viewBox="0 0 38 38" fill="none" xmlns="http://www.w3.org/2000/svg">
<path d="M19 38C29.4934 38 38 29.4934 38 19C38 8.50659 29.4934 0 19 0C8.50659 0 0 8.50659 0 19C0 29.4934 8.50659 38 19 38Z" fill="#FFDA44"/>
<path d="M5.56489 32.4351C6.36192 33.2321 7.21232 33.9429 8.10436 34.5687L34.5685 8.10446C33.9429 7.21243 33.232 6.36203 32.435 5.56499C31.6379 4.76796 30.7875 4.05724 29.8955 3.43143L3.4314 29.8957C4.05706 30.7875 4.76793 31.638 5.56489 32.4351V32.4351Z" fill="black"/>
<path d="M5.56492 5.56492C-0.429135 11.5591 -1.5799 20.5612 2.11048 27.7116L27.7116 2.11056C20.5612 -1.57982 11.559 -0.428985 5.56492 5.56492V5.56492Z" fill="#6DA544"/>
<path d="M32.435 32.4351C38.429 26.441 39.5797 17.4388 35.8895 10.2883L10.2883 35.8895C17.4386 39.5799 26.4409 38.4291 32.435 32.4351Z" fill="#338AF3"/>
</svg>
