<svg width="38" height="38" viewBox="0 0 38 38" fill="none" xmlns="http://www.w3.org/2000/svg">
<g clip-path="url(#clip0_557_859)">
<path d="M19 38C29.4934 38 38 29.4934 38 19C38 8.50659 29.4934 0 19 0C8.50659 0 0 8.50659 0 19C0 29.4934 8.50659 38 19 38Z" fill="white"/>
<path d="M18.174 19H38C38 17.2851 37.7714 15.6238 37.3455 14.0435H18.174V19Z" fill="#D80027"/>
<path d="M18.174 9.08698H35.2113C34.0482 7.18906 32.5611 5.51149 30.8272 4.13043H18.174V9.08698Z" fill="#D80027"/>
<path d="M19.0001 38C23.4717 38 27.5817 36.4545 30.8273 33.8696H7.17285C10.4184 36.4545 14.5285 38 19.0001 38Z" fill="#D80027"/>
<path d="M2.7887 28.913H35.2113C36.1451 27.3894 36.8692 25.7239 37.3455 23.9565H0.654541C1.1308 25.7239 1.85496 27.3894 2.7887 28.913V28.913Z" fill="#D80027"/>
<path d="M8.80116 2.96712H10.5326L8.92206 4.13718L9.53726 6.03042L7.92679 4.86036L6.31631 6.03042L6.84772 4.39486C5.4297 5.57605 4.18683 6.95994 3.16261 8.50191H3.71739L2.69221 9.24669C2.53249 9.51314 2.3793 9.78381 2.2325 10.0585L2.72205 11.5652L1.80871 10.9016C1.58168 11.3826 1.37401 11.8745 1.18735 12.3766L1.7267 14.0367H3.71739L2.10685 15.2068L2.72205 17.1L1.11157 15.9299L0.146879 16.6309C0.0503203 17.407 0 18.1976 0 19H19C19 8.50666 19 7.26958 19 0C15.2466 0 11.7477 1.08879 8.80116 2.96712V2.96712ZM9.53726 17.1L7.92679 15.9299L6.31631 17.1L6.93151 15.2068L5.32096 14.0367H7.31166L7.92679 12.1434L8.54191 14.0367H10.5326L8.92206 15.2068L9.53726 17.1ZM8.92206 9.67196L9.53726 11.5652L7.92679 10.3952L6.31631 11.5652L6.93151 9.67196L5.32096 8.50191H7.31166L7.92679 6.60866L8.54191 8.50191H10.5326L8.92206 9.67196ZM16.3525 17.1L14.742 15.9299L13.1315 17.1L13.7467 15.2068L12.1362 14.0367H14.1269L14.742 12.1434L15.3571 14.0367H17.3478L15.7373 15.2068L16.3525 17.1ZM15.7373 9.67196L16.3525 11.5652L14.742 10.3952L13.1315 11.5652L13.7467 9.67196L12.1362 8.50191H14.1269L14.742 6.60866L15.3571 8.50191H17.3478L15.7373 9.67196ZM15.7373 4.13718L16.3525 6.03042L14.742 4.86036L13.1315 6.03042L13.7467 4.13718L12.1362 2.96712H14.1269L14.742 1.07387L15.3571 2.96712H17.3478L15.7373 4.13718Z" fill="#0052B4"/>
</g>
<defs>
<clipPath id="clip0_557_859">
<rect width="38" height="38" fill="white"/>
</clipPath>
</defs>
</svg>
