<svg width="101" height="100" viewBox="0 0 101 100" fill="none" xmlns="http://www.w3.org/2000/svg">
    <path d="M86.584 40.813c1.473-9.85-6.027-15.146-16.282-18.678L73.629 8.79l-8.123-2.024-3.239 12.992a336.584 336.584 0 0 0-6.508-1.532L59.021 5.15l-8.118-2.024-3.328 13.34c-1.768-.403-3.503-.8-5.187-1.22l.01-.041-11.202-2.798-2.161 8.676s6.026 1.382 5.9 1.467c3.289.82 3.883 2.998 3.785 4.724l-3.79 15.202c.227.057.52.14.845.27-.271-.066-.56-.14-.86-.212L29.605 63.83c-.402 1-1.422 2.5-3.722 1.93.081.118-5.904-1.474-5.904-1.474l-4.033 9.299 10.57 2.635c1.967.493 3.895 1.009 5.792 1.494L28.946 91.21l8.113 2.024 3.33-13.354c2.216.602 4.367 1.157 6.472 1.68l-3.317 13.291 8.123 2.024 3.361-13.472c13.851 2.622 24.266 1.565 28.65-10.964 3.533-10.086-.176-15.904-7.463-19.699 5.308-1.224 9.303-4.715 10.369-11.927zm-18.56 26.025c-2.51 10.087-19.493 4.634-24.999 3.267l4.46-17.882c5.506 1.375 23.163 4.095 20.54 14.615zm2.513-26.17c-2.29 9.174-16.425 4.513-21.01 3.37L53.57 27.82c4.586 1.143 19.352 3.276 16.967 12.846z" fill="#90A4AE"/>
</svg>
