<svg width="101" height="101" viewBox="0 0 101 101" fill="none" xmlns="http://www.w3.org/2000/svg">
    <path d="m93.76 74.054-14.444 15.26a3.352 3.352 0 0 1-1.116.776c-.422.18-.878.273-1.338.273H8.388c-.327 0-.647-.094-.92-.27a1.66 1.66 0 0 1-.618-.723 1.629 1.629 0 0 1 .312-1.786l14.455-15.258c.313-.331.692-.595 1.113-.775.42-.18.875-.275 1.334-.275h68.47c.327 0 .646.094.92.27.273.177.487.428.618.723a1.632 1.632 0 0 1-.312 1.785zM79.316 43.327a3.354 3.354 0 0 0-1.116-.776 3.398 3.398 0 0 0-1.338-.273H8.388c-.327 0-.647.094-.92.27a1.659 1.659 0 0 0-.618.723 1.63 1.63 0 0 0 .312 1.785l14.455 15.26a3.398 3.398 0 0 0 2.447 1.05h68.47c.327-.001.646-.095.92-.272a1.632 1.632 0 0 0 .307-2.508L79.315 43.328zM8.388 32.367h68.474c.46 0 .916-.093 1.338-.273.422-.181.802-.445 1.116-.777L93.76 16.058a1.632 1.632 0 0 0 .312-1.785 1.665 1.665 0 0 0-.618-.723 1.696 1.696 0 0 0-.92-.27h-68.47c-.46 0-.913.094-1.334.275-.421.18-.8.444-1.113.775L7.165 29.588a1.63 1.63 0 0 0-.313 1.784c.13.295.345.546.618.723.272.177.591.271.918.272z" fill="#90A4AE"/>
</svg>
