<svg width="24" height="25" viewBox="0 0 24 25" fill="none" xmlns="http://www.w3.org/2000/svg">
<circle cx="12" cy="12.5" r="12" fill="white"/>
<path fill-rule="evenodd" clip-rule="evenodd" d="M11.1142 11.9819C11.1142 11.9819 12.0807 11.4278 12.0034 9.80355C11.9261 8.17933 10.2883 7.27778 9.00679 7.27778H5.05908V17.0592H9.00679C9.00679 17.0592 10.044 17.152 10.9729 16.6082C11.6946 16.185 12.3648 15.2587 12.3519 14.3659C12.3276 12.3943 11.1142 11.9819 11.1142 11.9819ZM9.00681 9.39994C9.00681 9.39994 9.75016 9.44272 9.73521 10.2035C9.73521 11.1376 9.00629 11.1015 9.00629 11.1015H7.30514V9.40046L9.00681 9.39994ZM7.30561 14.9365H9.00676V14.937C9.02339 14.937 9.04403 14.9378 9.06797 14.9387C9.349 14.9491 10.0831 14.9763 10.0831 13.9788C10.0702 12.9613 9.00676 13.0963 9.00676 13.0963H7.30561V14.9365Z" fill="#E02B59"/>
<path fill-rule="evenodd" clip-rule="evenodd" d="M15.9728 9.93293C17.0553 9.81695 18.4472 9.93293 19.4653 11.3118C20.4834 12.6901 20.0602 14.4169 20.0602 14.4169H15.1222C15.1222 14.4169 15.2939 15.169 16.428 15.3407C17.039 15.4405 17.6621 15.2545 18.1183 14.836L19.8133 15.8087C18.3828 17.8577 15.6635 17.1489 15.6635 17.1489C15.0191 16.9685 14.1943 16.6463 13.4597 15.6283C12.7251 14.6102 12.7617 12.9216 13.2664 11.8654C13.7711 10.8092 14.8902 10.0489 15.9728 9.93293ZM16.5764 11.7669C15.2274 11.7669 15.0598 12.8726 15.0598 12.8726H18.0801C18.0801 12.8726 17.8564 11.7669 16.5764 11.7669Z" fill="#E02B59"/>
</svg>
