<svg width="38" height="38" viewBox="0 0 38 38" fill="none" xmlns="http://www.w3.org/2000/svg">
<path d="M19 38C29.4934 38 38 29.4934 38 19C38 8.50659 29.4934 0 19 0C8.50659 0 0 8.50659 0 19C0 29.4934 8.50659 38 19 38Z" fill="white"/>
<path d="M38 19C38 11.4672 33.6163 4.95856 27.2609 1.88531V36.1146C33.6163 33.0414 38 26.5328 38 19V19Z" fill="#D80027"/>
<path d="M0 19C0 26.5328 4.38373 33.0414 10.7392 36.1147V1.88531C4.38373 4.95856 0 11.4672 0 19Z" fill="#D80027"/>
<path d="M22.3044 21.4782L25.6087 19.8261L23.9566 19V17.3478L20.6522 19L22.3044 15.6956H20.6522L19 13.2174L17.3478 15.6956H15.6957L17.3478 19L14.0435 17.3478V19L12.3914 19.8261L15.6957 21.4782L14.8696 23.1304H18.174V25.6087H19.8261V23.1304H23.1304L22.3044 21.4782Z" fill="#D80027"/>
</svg>
