<svg width="38" height="38" viewBox="0 0 38 38" fill="none" xmlns="http://www.w3.org/2000/svg">
<path d="M19 38C29.4934 38 38 29.4934 38 19C38 8.50659 29.4934 0 19 0C8.50659 0 0 8.50659 0 19C0 29.4934 8.50659 38 19 38Z" fill="#0052B4"/>
<path d="M19 7.43478L19.6152 9.32803H21.6057L19.9953 10.4981L20.6105 12.3913L19 11.2212L17.3894 12.3913L18.0046 10.4981L16.3942 9.32803H18.3848L19 7.43478Z" fill="#FFDA44"/>
<path d="M10.8221 10.8221L12.5959 11.7258L14.0035 10.3183L13.692 12.2844L15.4657 13.1881L13.4996 13.4996L13.1882 15.4658L12.2844 13.692L10.3184 14.0035L11.7259 12.596L10.8221 10.8221Z" fill="#FFDA44"/>
<path d="M7.43481 19L9.32806 18.3848V16.3942L10.498 18.0047L12.3914 17.3895L11.2212 19L12.3914 20.6105L10.498 19.9953L9.32806 21.6058V19.6152L7.43481 19Z" fill="#FFDA44"/>
<path d="M10.8221 27.1779L11.7258 25.404L10.3184 23.9965L12.2845 24.308L13.1881 22.5343L13.4996 24.5004L15.4657 24.8118L13.6921 25.7156L14.0035 27.6817L12.5959 26.2741L10.8221 27.1779Z" fill="#FFDA44"/>
<path d="M19 30.5652L18.3847 28.672H16.3942L18.0047 27.5019L17.3894 25.6088L19 26.7788L20.6105 25.6088L19.9953 27.5019L21.6057 28.672H19.6151L19 30.5652Z" fill="#FFDA44"/>
<path d="M27.1779 27.1779L25.4042 26.2742L23.9965 27.6817L24.308 25.7155L22.5344 24.8118L24.5005 24.5004L24.8119 22.5343L25.7156 24.308L27.6816 23.9965L26.2741 25.4042L27.1779 27.1779Z" fill="#FFDA44"/>
<path d="M30.5652 19L28.6719 19.6152V21.6058L27.5019 19.9953L25.6088 20.6105L26.7788 19L25.6088 17.3895L27.5019 18.0047L28.6719 16.3942V18.3849L30.5652 19Z" fill="#FFDA44"/>
<path d="M27.1779 10.8221L26.2742 12.596L27.6817 14.0035L25.7155 13.6919L24.8119 15.4657L24.5005 13.4996L22.5344 13.1881L24.308 12.2844L23.9965 10.3184L25.4042 11.7259L27.1779 10.8221Z" fill="#FFDA44"/>
</svg>
