<svg width="38" height="38" viewBox="0 0 38 38" fill="none" xmlns="http://www.w3.org/2000/svg">
<path d="M0 19C0 21.3241 0.418074 23.5504 1.18179 25.6087L19 26.4348L36.8182 25.6087C37.582 23.5504 38 21.3241 38 19C38 16.6759 37.582 14.4497 36.8182 12.3913L19 11.5652L1.18179 12.3913C0.418074 14.4497 0 16.6759 0 19H0Z" fill="#D80027"/>
<path d="M19 0C10.8306 0 3.86633 5.15613 1.18176 12.3913H36.8183C34.1336 5.15613 27.1693 0 19 0V0Z" fill="black"/>
<path d="M36.8182 25.6087H1.18176C3.86633 32.8438 10.8306 38 19 38C27.1693 38 34.1336 32.8438 36.8182 25.6087Z" fill="#496E2D"/>
<path d="M24.6789 9.08699L22.3585 7.99553L23.5942 5.74826L21.0744 6.23031L20.7551 3.68475L19 5.55692L17.245 3.68475L16.9256 6.23031L14.4059 5.74826L15.6416 7.99553L13.3212 9.08699H24.6789Z" fill="#D80027"/>
</svg>
