<svg width="944" height="364" viewBox="0 0 944 364" fill="none" xmlns="http://www.w3.org/2000/svg">
<g clip-path="url(#clip0_1_2)">
<path d="M181.573 0.489594C81.2917 0.489594 0 81.7813 0 182.063C0 282.344 81.2917 363.635 181.573 363.635C281.854 363.635 363.146 282.344 363.146 182.063C363.146 81.7813 281.854 0.489594 181.573 0.489594Z" fill="white"/>
<path d="M76.1412 102.539H128.85C142.167 102.539 153.214 105.909 161.995 112.643C170.787 119.367 175.183 128.435 175.183 139.851C175.183 150.742 170.818 159.841 162.1 167.143C168.391 170.351 173.391 174.81 177.1 180.518C180.818 186.226 182.683 192.924 182.683 200.601C182.683 213.049 178.162 223.216 169.12 231.101C160.079 238.976 148.443 242.914 134.225 242.914H76.1412V102.539ZM109.412 210.997H133.079C137.938 210.997 141.683 209.81 144.308 207.435C146.943 205.06 148.266 201.888 148.266 197.914C148.266 193.945 146.881 190.804 144.12 188.497C141.37 186.195 137.813 185.039 133.454 185.039H109.412V210.997ZM109.412 156.393L130.37 156.185C134.089 155.935 137.068 154.784 139.308 152.726C141.558 150.674 142.683 148.049 142.683 144.851C142.683 141.257 141.37 138.341 138.745 136.101C136.12 133.851 132.563 132.726 128.079 132.726H109.412V156.393Z" fill="#E02B59"/>
<path d="M209.231 151.58C219.731 140.945 232.481 135.622 247.481 135.622C262.606 135.622 275.423 140.945 285.939 151.58C296.449 162.221 301.71 175.039 301.71 190.039C301.71 193.247 301.449 197.159 300.939 201.768H226.71C228.252 205.992 231.106 209.424 235.272 212.06C239.439 214.685 244.408 215.997 250.189 215.997C259.408 215.997 266.585 213.435 271.71 208.31L296.522 224.06C291.522 230.351 284.757 235.388 276.231 239.164C267.699 242.94 259.022 244.83 250.189 244.83C233.647 244.83 220.022 239.549 209.314 228.976C198.606 218.393 193.252 205.414 193.252 190.039C193.252 175.039 198.574 162.221 209.231 151.58ZM226.918 177.351H269.418C268.387 173.757 265.918 170.705 262.002 168.205C258.095 165.705 253.324 164.455 247.689 164.455C242.173 164.455 237.59 165.705 233.939 168.205C230.283 170.705 227.944 173.757 226.918 177.351Z" fill="#E02B59"/>
<path d="M417.283 259.272V131.897H447.804L486.2 197.855L524.596 131.897H555.137V259.272H524.95V183.543L494.054 236.751H478.346L447.471 183.543V259.272H417.283Z" fill="white"/>
<path d="M577.122 176.376C586.773 166.725 598.403 161.897 612.018 161.897C625.627 161.897 637.289 166.762 646.997 176.48C656.716 186.189 661.581 197.793 661.581 211.293C661.581 225.017 656.716 236.741 646.997 246.459C637.289 256.168 625.627 261.022 612.018 261.022C598.294 261.022 586.633 256.168 577.039 246.459C567.44 236.741 562.643 225.017 562.643 211.293C562.643 197.683 567.466 186.043 577.122 176.376ZM591.247 211.293C591.247 217.1 593.278 222.043 597.351 226.126C601.31 230.199 606.195 232.23 612.018 232.23C617.836 232.23 622.752 230.199 626.768 226.126C630.778 222.043 632.789 217.1 632.789 211.293C632.789 205.584 630.778 200.725 626.768 196.709C622.752 192.699 617.836 190.689 612.018 190.689C606.195 190.689 601.278 192.699 597.268 196.709C593.252 200.725 591.247 205.584 591.247 211.293Z" fill="white"/>
<path d="M667.159 123.168H695.43V176.043C698.221 171.741 702.023 168.246 706.846 165.564C711.68 162.887 716.94 161.543 722.638 161.543C734.971 161.543 745.497 166.407 754.221 176.126C762.956 185.834 767.325 197.496 767.325 211.105C767.325 224.72 762.956 236.387 754.221 246.105C745.497 255.814 734.971 260.668 722.638 260.668C716.706 260.668 711.242 259.246 706.242 256.397C701.242 253.553 697.346 249.855 694.555 245.314L692.805 259.272H667.159V123.168ZM701.888 226.459C706.065 230.657 711.18 232.751 717.221 232.751C723.273 232.751 728.367 230.663 732.492 226.48C736.627 222.288 738.7 217.168 738.7 211.126C738.7 205.074 736.627 199.918 732.492 195.668C728.367 191.418 723.273 189.293 717.221 189.293C711.18 189.293 706.034 191.418 701.784 195.668C697.544 199.918 695.43 205.074 695.43 211.126C695.43 217.168 697.581 222.282 701.888 226.459Z" fill="white"/>
<path d="M773.079 259.272V163.293H801.35V259.272H773.079ZM771.516 140.959C771.516 136.657 773.047 132.933 776.12 129.793C779.204 126.657 782.896 125.084 787.204 125.084C791.506 125.084 795.204 126.657 798.287 129.793C801.37 132.933 802.912 136.657 802.912 140.959C802.912 145.267 801.396 148.933 798.37 151.959C795.23 155.1 791.506 156.668 787.204 156.668C782.896 156.668 779.204 155.126 776.12 152.043C773.047 148.959 771.516 145.267 771.516 140.959Z" fill="white"/>
<path d="M839.739 259.272H811.468V123.168H839.739V259.272Z" fill="white"/>
<path d="M859.807 176.376C869.349 166.725 880.922 161.897 894.537 161.897C908.255 161.897 919.891 166.73 929.432 176.397C938.974 186.053 943.745 197.683 943.745 211.293C943.745 214.199 943.505 217.746 943.037 221.939H875.682C877.068 225.772 879.651 228.887 883.432 231.272C887.224 233.647 891.734 234.834 896.974 234.834C905.349 234.834 911.859 232.512 916.516 227.855L939.016 242.168C934.484 247.876 928.354 252.449 920.62 255.876C912.88 259.303 905 261.022 896.974 261.022C881.958 261.022 869.599 256.225 859.891 246.626C850.182 237.032 845.328 225.251 845.328 211.293C845.328 197.683 850.151 186.043 859.807 176.376ZM875.849 199.772H914.412C913.479 196.512 911.234 193.746 907.682 191.48C904.141 189.22 899.813 188.084 894.703 188.084C889.703 188.084 885.542 189.22 882.224 191.48C878.901 193.746 876.776 196.512 875.849 199.772Z" fill="white"/>
</g>
<defs>
<clipPath id="clip0_1_2">
<rect width="944" height="364" fill="white"/>
</clipPath>
</defs>
</svg>
