<svg xmlns="http://www.w3.org/2000/svg" xmlns:xlink="http://www.w3.org/1999/xlink" width="1500" zoomAndPan="magnify" viewBox="0 0 1125 374.999991" height="500" preserveAspectRatio="xMidYMid meet" version="1.0"><defs><g/><clipPath id="58b385ff33"><path d="M 37.5 51.367188 L 309.859375 51.367188 L 309.859375 323.726562 L 37.5 323.726562 Z M 37.5 51.367188 " clip-rule="nonzero"/></clipPath></defs><g clip-path="url(#58b385ff33)"><path fill="#e02b59" d="M 173.679688 51.367188 C 98.46875 51.367188 37.5 112.335938 37.5 187.546875 C 37.5 262.757812 98.46875 323.726562 173.679688 323.726562 C 248.890625 323.726562 309.859375 262.757812 309.859375 187.546875 C 309.859375 112.335938 248.890625 51.367188 173.679688 51.367188 " fill-opacity="1" fill-rule="nonzero"/></g><g fill="#ffffff" fill-opacity="1"><g transform="translate(85.527802, 233.185287)"><g><path d="M 9.078125 -105.28125 L 48.609375 -105.28125 C 58.597656 -105.28125 66.882812 -102.753906 73.46875 -97.703125 C 80.0625 -92.660156 83.359375 -85.859375 83.359375 -77.296875 C 83.359375 -69.128906 80.085938 -62.304688 73.546875 -56.828125 C 78.265625 -54.421875 82.015625 -51.078125 84.796875 -46.796875 C 87.585938 -42.515625 88.984375 -37.492188 88.984375 -31.734375 C 88.984375 -22.398438 85.59375 -14.773438 78.8125 -8.859375 C 72.03125 -2.953125 63.304688 0 52.640625 0 L 9.078125 0 Z M 34.03125 -23.9375 L 51.78125 -23.9375 C 55.425781 -23.9375 58.234375 -24.828125 60.203125 -26.609375 C 62.179688 -28.390625 63.171875 -30.769531 63.171875 -33.75 C 63.171875 -36.726562 62.132812 -39.082031 60.0625 -40.8125 C 58 -42.539062 55.332031 -43.40625 52.0625 -43.40625 L 34.03125 -43.40625 Z M 34.03125 -64.890625 L 49.75 -65.046875 C 52.539062 -65.234375 54.773438 -66.097656 56.453125 -67.640625 C 58.140625 -69.179688 58.984375 -71.148438 58.984375 -73.546875 C 58.984375 -76.242188 58 -78.429688 56.03125 -80.109375 C 54.0625 -81.796875 51.394531 -82.640625 48.03125 -82.640625 L 34.03125 -82.640625 Z M 34.03125 -64.890625 "/></g></g></g><g fill="#ffffff" fill-opacity="1"><g transform="translate(178.407399, 233.185287)"><g><path d="M 16.015625 -68.5 C 23.890625 -76.476562 33.453125 -80.46875 44.703125 -80.46875 C 56.046875 -80.46875 65.660156 -76.476562 73.546875 -68.5 C 81.429688 -60.519531 85.375 -50.90625 85.375 -39.65625 C 85.375 -37.25 85.179688 -34.316406 84.796875 -30.859375 L 29.125 -30.859375 C 30.28125 -27.691406 32.421875 -25.117188 35.546875 -23.140625 C 38.671875 -21.171875 42.398438 -20.1875 46.734375 -20.1875 C 53.648438 -20.1875 59.03125 -22.109375 62.875 -25.953125 L 81.484375 -14.140625 C 77.734375 -9.421875 72.660156 -5.644531 66.265625 -2.8125 C 59.867188 0.0195312 53.359375 1.4375 46.734375 1.4375 C 34.328125 1.4375 24.109375 -2.523438 16.078125 -10.453125 C 8.046875 -18.390625 4.03125 -28.125 4.03125 -39.65625 C 4.03125 -50.90625 8.023438 -60.519531 16.015625 -68.5 Z M 29.28125 -49.171875 L 61.15625 -49.171875 C 60.382812 -51.867188 58.53125 -54.15625 55.59375 -56.03125 C 52.664062 -57.90625 49.085938 -58.84375 44.859375 -58.84375 C 40.722656 -58.84375 37.285156 -57.90625 34.546875 -56.03125 C 31.804688 -54.15625 30.050781 -51.867188 29.28125 -49.171875 Z M 29.28125 -49.171875 "/></g></g></g><g fill="#e02b59" fill-opacity="1"><g transform="translate(342.212325, 245.453967)"><g><path d="M 8.25 0 L 8.25 -95.53125 L 31.140625 -95.53125 L 59.9375 -46.0625 L 88.734375 -95.53125 L 111.640625 -95.53125 L 111.640625 0 L 89 0 L 89 -56.796875 L 65.828125 -16.890625 L 54.046875 -16.890625 L 30.890625 -56.796875 L 30.890625 0 Z M 8.25 0 "/></g></g></g><g fill="#e02b59" fill-opacity="1"><g transform="translate(455.810386, 245.453967)"><g><path d="M 14.53125 -62.171875 C 21.769531 -69.410156 30.492188 -73.03125 40.703125 -73.03125 C 50.910156 -73.03125 59.65625 -69.382812 66.9375 -62.09375 C 74.226562 -54.8125 77.875 -46.109375 77.875 -35.984375 C 77.875 -25.691406 74.226562 -16.898438 66.9375 -9.609375 C 59.65625 -2.328125 50.910156 1.3125 40.703125 1.3125 C 30.410156 1.3125 21.664062 -2.328125 14.46875 -9.609375 C 7.269531 -16.898438 3.671875 -25.691406 3.671875 -35.984375 C 3.671875 -46.191406 7.289062 -54.921875 14.53125 -62.171875 Z M 25.125 -35.984375 C 25.125 -31.628906 26.648438 -27.921875 29.703125 -24.859375 C 32.671875 -21.804688 36.335938 -20.28125 40.703125 -20.28125 C 45.066406 -20.28125 48.753906 -21.804688 51.765625 -24.859375 C 54.773438 -27.921875 56.28125 -31.628906 56.28125 -35.984375 C 56.28125 -40.265625 54.773438 -43.910156 51.765625 -46.921875 C 48.753906 -49.929688 45.066406 -51.4375 40.703125 -51.4375 C 36.335938 -51.4375 32.648438 -49.929688 29.640625 -46.921875 C 26.628906 -43.910156 25.125 -40.265625 25.125 -35.984375 Z M 25.125 -35.984375 "/></g></g></g><g fill="#e02b59" fill-opacity="1"><g transform="translate(530.931531, 245.453967)"><g><path d="M 6.9375 -102.078125 L 28.140625 -102.078125 L 28.140625 -62.421875 C 30.234375 -65.648438 33.085938 -68.269531 36.703125 -70.28125 C 40.328125 -72.289062 44.273438 -73.296875 48.546875 -73.296875 C 57.796875 -73.296875 65.691406 -69.648438 72.234375 -62.359375 C 78.785156 -55.078125 82.0625 -46.332031 82.0625 -36.125 C 82.0625 -25.914062 78.785156 -17.164062 72.234375 -9.875 C 65.691406 -2.59375 57.796875 1.046875 48.546875 1.046875 C 44.097656 1.046875 40 -0.0195312 36.25 -2.15625 C 32.5 -4.289062 29.578125 -7.0625 27.484375 -10.46875 L 26.171875 0 L 6.9375 0 Z M 32.984375 -24.609375 C 36.117188 -21.460938 39.953125 -19.890625 44.484375 -19.890625 C 49.023438 -19.890625 52.84375 -21.457031 55.9375 -24.59375 C 59.039062 -27.738281 60.59375 -31.578125 60.59375 -36.109375 C 60.59375 -40.648438 59.039062 -44.515625 55.9375 -47.703125 C 52.84375 -50.890625 49.023438 -52.484375 44.484375 -52.484375 C 39.953125 -52.484375 36.09375 -50.890625 32.90625 -47.703125 C 29.726562 -44.515625 28.140625 -40.648438 28.140625 -36.109375 C 28.140625 -31.578125 29.753906 -27.742188 32.984375 -24.609375 Z M 32.984375 -24.609375 "/></g></g></g><g fill="#e02b59" fill-opacity="1"><g transform="translate(610.371528, 245.453967)"><g><path d="M 6.9375 0 L 6.9375 -71.984375 L 28.140625 -71.984375 L 28.140625 0 Z M 5.765625 -88.734375 C 5.765625 -91.960938 6.914062 -94.753906 9.21875 -97.109375 C 11.53125 -99.460938 14.300781 -100.640625 17.53125 -100.640625 C 20.757812 -100.640625 23.53125 -99.460938 25.84375 -97.109375 C 28.15625 -94.753906 29.3125 -91.960938 29.3125 -88.734375 C 29.3125 -85.503906 28.175781 -82.753906 25.90625 -80.484375 C 23.550781 -78.128906 20.757812 -76.953125 17.53125 -76.953125 C 14.300781 -76.953125 11.53125 -78.109375 9.21875 -80.421875 C 6.914062 -82.734375 5.765625 -85.503906 5.765625 -88.734375 Z M 5.765625 -88.734375 "/></g></g></g><g fill="#e02b59" fill-opacity="1"><g transform="translate(639.163352, 245.453967)"><g><path d="M 28.140625 0 L 6.9375 0 L 6.9375 -102.078125 L 28.140625 -102.078125 Z M 28.140625 0 "/></g></g></g><g fill="#e02b59" fill-opacity="1"><g transform="translate(667.824294, 245.453967)"><g><path d="M 14.53125 -62.171875 C 21.6875 -69.410156 30.367188 -73.03125 40.578125 -73.03125 C 50.867188 -73.03125 59.59375 -69.40625 66.75 -62.15625 C 73.90625 -54.914062 77.484375 -46.191406 77.484375 -35.984375 C 77.484375 -33.804688 77.304688 -31.144531 76.953125 -28 L 26.4375 -28 C 27.476562 -25.125 29.414062 -22.789062 32.25 -21 C 35.09375 -19.21875 38.476562 -18.328125 42.40625 -18.328125 C 48.6875 -18.328125 53.570312 -20.070312 57.0625 -23.5625 L 73.9375 -12.828125 C 70.539062 -8.546875 65.941406 -5.117188 60.140625 -2.546875 C 54.335938 0.0234375 48.425781 1.3125 42.40625 1.3125 C 31.144531 1.3125 21.875 -2.285156 14.59375 -9.484375 C 7.3125 -16.679688 3.671875 -25.515625 3.671875 -35.984375 C 3.671875 -46.191406 7.289062 -54.921875 14.53125 -62.171875 Z M 26.5625 -44.625 L 55.484375 -44.625 C 54.785156 -47.070312 53.101562 -49.144531 50.4375 -50.84375 C 47.78125 -52.539062 44.535156 -53.390625 40.703125 -53.390625 C 36.953125 -53.390625 33.832031 -52.539062 31.34375 -50.84375 C 28.851562 -49.144531 27.257812 -47.070312 26.5625 -44.625 Z M 26.5625 -44.625 "/></g></g></g></svg>