<svg width="150" height="150" viewBox="0 0 150 150" fill="none" xmlns="http://www.w3.org/2000/svg">
<path d="M4.05405 0H0V4.05405H4.05405V0Z" fill="black"/>
<path d="M4.05405 4.05408H0V8.10813H4.05405V4.05408Z" fill="black"/>
<path d="M4.05405 8.10812H0V12.1622H4.05405V8.10812Z" fill="black"/>
<path d="M4.05405 12.1622H0V16.2163H4.05405V12.1622Z" fill="black"/>
<path d="M4.05405 16.2162H0V20.2702H4.05405V16.2162Z" fill="black"/>
<path d="M4.05405 20.2703H0V24.3244H4.05405V20.2703Z" fill="black"/>
<path d="M4.05405 24.3243H0V28.3784H4.05405V24.3243Z" fill="black"/>
<path d="M4.05405 32.4324H0V36.4865H4.05405V32.4324Z" fill="black"/>
<path d="M4.05405 40.5406H0V44.5946H4.05405V40.5406Z" fill="black"/>
<path d="M4.05405 60.8108H0V64.8648H4.05405V60.8108Z" fill="black"/>
<path d="M4.05405 72.973H0V77.027H4.05405V72.973Z" fill="black"/>
<path d="M4.05405 89.1892H0V93.2432H4.05405V89.1892Z" fill="black"/>
<path d="M4.05405 105.405H0V109.459H4.05405V105.405Z" fill="black"/>
<path d="M4.05405 109.459H0V113.513H4.05405V109.459Z" fill="black"/>
<path d="M4.05405 121.622H0V125.676H4.05405V121.622Z" fill="black"/>
<path d="M4.05405 125.676H0V129.73H4.05405V125.676Z" fill="black"/>
<path d="M4.05405 129.73H0V133.784H4.05405V129.73Z" fill="black"/>
<path d="M4.05405 133.784H0V137.838H4.05405V133.784Z" fill="black"/>
<path d="M4.05405 137.838H0V141.892H4.05405V137.838Z" fill="black"/>
<path d="M4.05405 141.892H0V145.946H4.05405V141.892Z" fill="black"/>
<path d="M4.05405 145.946H0V150H4.05405V145.946Z" fill="black"/>
<path d="M8.10814 0H4.05409V4.05405H8.10814V0Z" fill="black"/>
<path d="M8.10814 24.3243H4.05409V28.3784H8.10814V24.3243Z" fill="black"/>
<path d="M8.10814 32.4324H4.05409V36.4865H8.10814V32.4324Z" fill="black"/>
<path d="M8.10814 36.4865H4.05409V40.5405H8.10814V36.4865Z" fill="black"/>
<path d="M8.10814 48.6487H4.05409V52.7027H8.10814V48.6487Z" fill="black"/>
<path d="M8.10814 60.8108H4.05409V64.8648H8.10814V60.8108Z" fill="black"/>
<path d="M8.10814 68.9189H4.05409V72.973H8.10814V68.9189Z" fill="black"/>
<path d="M8.10814 72.973H4.05409V77.027H8.10814V72.973Z" fill="black"/>
<path d="M8.10814 77.027H4.05409V81.0811H8.10814V77.027Z" fill="black"/>
<path d="M8.10814 89.1892H4.05409V93.2432H8.10814V89.1892Z" fill="black"/>
<path d="M8.10814 93.2432H4.05409V97.2973H8.10814V93.2432Z" fill="black"/>
<path d="M8.10814 97.2973H4.05409V101.351H8.10814V97.2973Z" fill="black"/>
<path d="M8.10814 105.405H4.05409V109.459H8.10814V105.405Z" fill="black"/>
<path d="M8.10814 109.459H4.05409V113.513H8.10814V109.459Z" fill="black"/>
<path d="M8.10814 121.622H4.05409V125.676H8.10814V121.622Z" fill="black"/>
<path d="M8.10814 145.946H4.05409V150H8.10814V145.946Z" fill="black"/>
<path d="M12.1622 0H8.10812V4.05405H12.1622V0Z" fill="black"/>
<path d="M12.1622 8.10812H8.10812V12.1622H12.1622V8.10812Z" fill="black"/>
<path d="M12.1622 12.1622H8.10812V16.2163H12.1622V12.1622Z" fill="black"/>
<path d="M12.1622 16.2162H8.10812V20.2702H12.1622V16.2162Z" fill="black"/>
<path d="M12.1622 24.3243H8.10812V28.3784H12.1622V24.3243Z" fill="black"/>
<path d="M12.1622 36.4865H8.10812V40.5405H12.1622V36.4865Z" fill="black"/>
<path d="M12.1622 60.8108H8.10812V64.8648H12.1622V60.8108Z" fill="black"/>
<path d="M12.1622 64.8648H8.10812V68.9189H12.1622V64.8648Z" fill="black"/>
<path d="M12.1622 81.0811H8.10812V85.1351H12.1622V81.0811Z" fill="black"/>
<path d="M12.1622 85.1352H8.10812V89.1892H12.1622V85.1352Z" fill="black"/>
<path d="M12.1622 97.2973H8.10812V101.351H12.1622V97.2973Z" fill="black"/>
<path d="M12.1622 113.514H8.10812V117.568H12.1622V113.514Z" fill="black"/>
<path d="M12.1622 121.622H8.10812V125.676H12.1622V121.622Z" fill="black"/>
<path d="M12.1622 129.73H8.10812V133.784H12.1622V129.73Z" fill="black"/>
<path d="M12.1622 133.784H8.10812V137.838H12.1622V133.784Z" fill="black"/>
<path d="M12.1622 137.838H8.10812V141.892H12.1622V137.838Z" fill="black"/>
<path d="M12.1622 145.946H8.10812V150H12.1622V145.946Z" fill="black"/>
<path d="M16.2162 0H12.1622V4.05405H16.2162V0Z" fill="black"/>
<path d="M16.2162 8.10812H12.1622V12.1622H16.2162V8.10812Z" fill="black"/>
<path d="M16.2162 12.1622H12.1622V16.2163H16.2162V12.1622Z" fill="black"/>
<path d="M16.2162 16.2162H12.1622V20.2702H16.2162V16.2162Z" fill="black"/>
<path d="M16.2162 24.3243H12.1622V28.3784H16.2162V24.3243Z" fill="black"/>
<path d="M16.2162 56.7568H12.1622V60.8108H16.2162V56.7568Z" fill="black"/>
<path d="M16.2162 77.027H12.1622V81.0811H16.2162V77.027Z" fill="black"/>
<path d="M16.2162 81.0811H12.1622V85.1351H16.2162V81.0811Z" fill="black"/>
<path d="M16.2162 85.1352H12.1622V89.1892H16.2162V85.1352Z" fill="black"/>
<path d="M16.2162 89.1892H12.1622V93.2432H16.2162V89.1892Z" fill="black"/>
<path d="M16.2162 101.351H12.1622V105.405H16.2162V101.351Z" fill="black"/>
<path d="M16.2162 105.405H12.1622V109.459H16.2162V105.405Z" fill="black"/>
<path d="M16.2162 113.514H12.1622V117.568H16.2162V113.514Z" fill="black"/>
<path d="M16.2162 121.622H12.1622V125.676H16.2162V121.622Z" fill="black"/>
<path d="M16.2162 129.73H12.1622V133.784H16.2162V129.73Z" fill="black"/>
<path d="M16.2162 133.784H12.1622V137.838H16.2162V133.784Z" fill="black"/>
<path d="M16.2162 137.838H12.1622V141.892H16.2162V137.838Z" fill="black"/>
<path d="M16.2162 145.946H12.1622V150H16.2162V145.946Z" fill="black"/>
<path d="M20.2702 0H16.2162V4.05405H20.2702V0Z" fill="black"/>
<path d="M20.2702 8.10812H16.2162V12.1622H20.2702V8.10812Z" fill="black"/>
<path d="M20.2702 12.1622H16.2162V16.2163H20.2702V12.1622Z" fill="black"/>
<path d="M20.2702 16.2162H16.2162V20.2702H20.2702V16.2162Z" fill="black"/>
<path d="M20.2702 24.3243H16.2162V28.3784H20.2702V24.3243Z" fill="black"/>
<path d="M20.2702 32.4324H16.2162V36.4865H20.2702V32.4324Z" fill="black"/>
<path d="M20.2702 36.4865H16.2162V40.5405H20.2702V36.4865Z" fill="black"/>
<path d="M20.2702 40.5406H16.2162V44.5946H20.2702V40.5406Z" fill="black"/>
<path d="M20.2702 48.6487H16.2162V52.7027H20.2702V48.6487Z" fill="black"/>
<path d="M20.2702 60.8108H16.2162V64.8648H20.2702V60.8108Z" fill="black"/>
<path d="M20.2702 64.8648H16.2162V68.9189H20.2702V64.8648Z" fill="black"/>
<path d="M20.2702 68.9189H16.2162V72.973H20.2702V68.9189Z" fill="black"/>
<path d="M20.2702 72.973H16.2162V77.027H20.2702V72.973Z" fill="black"/>
<path d="M20.2702 81.0811H16.2162V85.1351H20.2702V81.0811Z" fill="black"/>
<path d="M20.2702 93.2432H16.2162V97.2973H20.2702V93.2432Z" fill="black"/>
<path d="M20.2702 97.2973H16.2162V101.351H20.2702V97.2973Z" fill="black"/>
<path d="M20.2702 109.459H16.2162V113.513H20.2702V109.459Z" fill="black"/>
<path d="M20.2702 113.514H16.2162V117.568H20.2702V113.514Z" fill="black"/>
<path d="M20.2702 121.622H16.2162V125.676H20.2702V121.622Z" fill="black"/>
<path d="M20.2702 129.73H16.2162V133.784H20.2702V129.73Z" fill="black"/>
<path d="M20.2702 133.784H16.2162V137.838H20.2702V133.784Z" fill="black"/>
<path d="M20.2702 137.838H16.2162V141.892H20.2702V137.838Z" fill="black"/>
<path d="M20.2702 145.946H16.2162V150H20.2702V145.946Z" fill="black"/>
<path d="M24.3244 0H20.2703V4.05405H24.3244V0Z" fill="black"/>
<path d="M24.3244 24.3243H20.2703V28.3784H24.3244V24.3243Z" fill="black"/>
<path d="M24.3244 32.4324H20.2703V36.4865H24.3244V32.4324Z" fill="black"/>
<path d="M24.3244 40.5406H20.2703V44.5946H24.3244V40.5406Z" fill="black"/>
<path d="M24.3244 44.5945H20.2703V48.6486H24.3244V44.5945Z" fill="black"/>
<path d="M24.3244 48.6487H20.2703V52.7027H24.3244V48.6487Z" fill="black"/>
<path d="M24.3244 52.7027H20.2703V56.7568H24.3244V52.7027Z" fill="black"/>
<path d="M24.3244 64.8648H20.2703V68.9189H24.3244V64.8648Z" fill="black"/>
<path d="M24.3244 77.027H20.2703V81.0811H24.3244V77.027Z" fill="black"/>
<path d="M24.3244 81.0811H20.2703V85.1351H24.3244V81.0811Z" fill="black"/>
<path d="M24.3244 97.2973H20.2703V101.351H24.3244V97.2973Z" fill="black"/>
<path d="M24.3244 105.405H20.2703V109.459H24.3244V105.405Z" fill="black"/>
<path d="M24.3244 121.622H20.2703V125.676H24.3244V121.622Z" fill="black"/>
<path d="M24.3244 145.946H20.2703V150H24.3244V145.946Z" fill="black"/>
<path d="M28.3783 0H24.3243V4.05405H28.3783V0Z" fill="black"/>
<path d="M28.3783 4.05408H24.3243V8.10813H28.3783V4.05408Z" fill="black"/>
<path d="M28.3783 8.10812H24.3243V12.1622H28.3783V8.10812Z" fill="black"/>
<path d="M28.3783 12.1622H24.3243V16.2163H28.3783V12.1622Z" fill="black"/>
<path d="M28.3783 16.2162H24.3243V20.2702H28.3783V16.2162Z" fill="black"/>
<path d="M28.3783 20.2703H24.3243V24.3244H28.3783V20.2703Z" fill="black"/>
<path d="M28.3783 24.3243H24.3243V28.3784H28.3783V24.3243Z" fill="black"/>
<path d="M28.3783 32.4324H24.3243V36.4865H28.3783V32.4324Z" fill="black"/>
<path d="M28.3783 40.5406H24.3243V44.5946H28.3783V40.5406Z" fill="black"/>
<path d="M28.3783 48.6487H24.3243V52.7027H28.3783V48.6487Z" fill="black"/>
<path d="M28.3783 56.7568H24.3243V60.8108H28.3783V56.7568Z" fill="black"/>
<path d="M28.3783 64.8648H24.3243V68.9189H28.3783V64.8648Z" fill="black"/>
<path d="M28.3783 72.973H24.3243V77.027H28.3783V72.973Z" fill="black"/>
<path d="M28.3783 81.0811H24.3243V85.1351H28.3783V81.0811Z" fill="black"/>
<path d="M28.3783 89.1892H24.3243V93.2432H28.3783V89.1892Z" fill="black"/>
<path d="M28.3783 97.2973H24.3243V101.351H28.3783V97.2973Z" fill="black"/>
<path d="M28.3783 105.405H24.3243V109.459H28.3783V105.405Z" fill="black"/>
<path d="M28.3783 113.514H24.3243V117.568H28.3783V113.514Z" fill="black"/>
<path d="M28.3783 121.622H24.3243V125.676H28.3783V121.622Z" fill="black"/>
<path d="M28.3783 125.676H24.3243V129.73H28.3783V125.676Z" fill="black"/>
<path d="M28.3783 129.73H24.3243V133.784H28.3783V129.73Z" fill="black"/>
<path d="M28.3783 133.784H24.3243V137.838H28.3783V133.784Z" fill="black"/>
<path d="M28.3783 137.838H24.3243V141.892H28.3783V137.838Z" fill="black"/>
<path d="M28.3783 141.892H24.3243V145.946H28.3783V141.892Z" fill="black"/>
<path d="M28.3783 145.946H24.3243V150H28.3783V145.946Z" fill="black"/>
<path d="M32.4324 36.4865H28.3784V40.5405H32.4324V36.4865Z" fill="black"/>
<path d="M32.4324 40.5406H28.3784V44.5946H32.4324V40.5406Z" fill="black"/>
<path d="M32.4324 44.5945H28.3784V48.6486H32.4324V44.5945Z" fill="black"/>
<path d="M32.4324 48.6487H28.3784V52.7027H32.4324V48.6487Z" fill="black"/>
<path d="M32.4324 56.7568H28.3784V60.8108H32.4324V56.7568Z" fill="black"/>
<path d="M32.4324 60.8108H28.3784V64.8648H32.4324V60.8108Z" fill="black"/>
<path d="M32.4324 64.8648H28.3784V68.9189H32.4324V64.8648Z" fill="black"/>
<path d="M32.4324 77.027H28.3784V81.0811H32.4324V77.027Z" fill="black"/>
<path d="M32.4324 89.1892H28.3784V93.2432H32.4324V89.1892Z" fill="black"/>
<path d="M32.4324 93.2432H28.3784V97.2973H32.4324V93.2432Z" fill="black"/>
<path d="M32.4324 101.351H28.3784V105.405H32.4324V101.351Z" fill="black"/>
<path d="M32.4324 105.405H28.3784V109.459H32.4324V105.405Z" fill="black"/>
<path d="M32.4324 113.514H28.3784V117.568H32.4324V113.514Z" fill="black"/>
<path d="M36.4865 0H32.4324V4.05405H36.4865V0Z" fill="black"/>
<path d="M36.4865 4.05408H32.4324V8.10813H36.4865V4.05408Z" fill="black"/>
<path d="M36.4865 8.10812H32.4324V12.1622H36.4865V8.10812Z" fill="black"/>
<path d="M36.4865 12.1622H32.4324V16.2163H36.4865V12.1622Z" fill="black"/>
<path d="M36.4865 20.2703H32.4324V24.3244H36.4865V20.2703Z" fill="black"/>
<path d="M36.4865 24.3243H32.4324V28.3784H36.4865V24.3243Z" fill="black"/>
<path d="M36.4865 36.4865H32.4324V40.5405H36.4865V36.4865Z" fill="black"/>
<path d="M36.4865 40.5406H32.4324V44.5946H36.4865V40.5406Z" fill="black"/>
<path d="M36.4865 64.8648H32.4324V68.9189H36.4865V64.8648Z" fill="black"/>
<path d="M36.4865 68.9189H32.4324V72.973H36.4865V68.9189Z" fill="black"/>
<path d="M36.4865 72.973H32.4324V77.027H36.4865V72.973Z" fill="black"/>
<path d="M36.4865 77.027H32.4324V81.0811H36.4865V77.027Z" fill="black"/>
<path d="M36.4865 85.1352H32.4324V89.1892H36.4865V85.1352Z" fill="black"/>
<path d="M36.4865 89.1892H32.4324V93.2432H36.4865V89.1892Z" fill="black"/>
<path d="M36.4865 93.2432H32.4324V97.2973H36.4865V93.2432Z" fill="black"/>
<path d="M36.4865 97.2973H32.4324V101.351H36.4865V97.2973Z" fill="black"/>
<path d="M36.4865 101.351H32.4324V105.405H36.4865V101.351Z" fill="black"/>
<path d="M36.4865 105.405H32.4324V109.459H36.4865V105.405Z" fill="black"/>
<path d="M36.4865 113.514H32.4324V117.568H36.4865V113.514Z" fill="black"/>
<path d="M36.4865 117.568H32.4324V121.622H36.4865V117.568Z" fill="black"/>
<path d="M36.4865 125.676H32.4324V129.73H36.4865V125.676Z" fill="black"/>
<path d="M36.4865 129.73H32.4324V133.784H36.4865V129.73Z" fill="black"/>
<path d="M36.4865 141.892H32.4324V145.946H36.4865V141.892Z" fill="black"/>
<path d="M36.4865 145.946H32.4324V150H36.4865V145.946Z" fill="black"/>
<path d="M40.5405 0H36.4865V4.05405H40.5405V0Z" fill="black"/>
<path d="M40.5405 4.05408H36.4865V8.10813H40.5405V4.05408Z" fill="black"/>
<path d="M40.5405 12.1622H36.4865V16.2163H40.5405V12.1622Z" fill="black"/>
<path d="M40.5405 28.3784H36.4865V32.4324H40.5405V28.3784Z" fill="black"/>
<path d="M40.5405 48.6487H36.4865V52.7027H40.5405V48.6487Z" fill="black"/>
<path d="M40.5405 64.8648H36.4865V68.9189H40.5405V64.8648Z" fill="black"/>
<path d="M40.5405 68.9189H36.4865V72.973H40.5405V68.9189Z" fill="black"/>
<path d="M40.5405 81.0811H36.4865V85.1351H40.5405V81.0811Z" fill="black"/>
<path d="M40.5405 85.1352H36.4865V89.1892H40.5405V85.1352Z" fill="black"/>
<path d="M40.5405 93.2432H36.4865V97.2973H40.5405V93.2432Z" fill="black"/>
<path d="M40.5405 101.351H36.4865V105.405H40.5405V101.351Z" fill="black"/>
<path d="M40.5405 109.459H36.4865V113.513H40.5405V109.459Z" fill="black"/>
<path d="M40.5405 117.568H36.4865V121.622H40.5405V117.568Z" fill="black"/>
<path d="M40.5405 121.622H36.4865V125.676H40.5405V121.622Z" fill="black"/>
<path d="M40.5405 125.676H36.4865V129.73H40.5405V125.676Z" fill="black"/>
<path d="M40.5405 129.73H36.4865V133.784H40.5405V129.73Z" fill="black"/>
<path d="M40.5405 141.892H36.4865V145.946H40.5405V141.892Z" fill="black"/>
<path d="M44.5946 0H40.5405V4.05405H44.5946V0Z" fill="black"/>
<path d="M44.5946 4.05408H40.5405V8.10813H44.5946V4.05408Z" fill="black"/>
<path d="M44.5946 8.10812H40.5405V12.1622H44.5946V8.10812Z" fill="black"/>
<path d="M44.5946 24.3243H40.5405V28.3784H44.5946V24.3243Z" fill="black"/>
<path d="M44.5946 36.4865H40.5405V40.5405H44.5946V36.4865Z" fill="black"/>
<path d="M44.5946 40.5406H40.5405V44.5946H44.5946V40.5406Z" fill="black"/>
<path d="M44.5946 44.5945H40.5405V48.6486H44.5946V44.5945Z" fill="black"/>
<path d="M44.5946 48.6487H40.5405V52.7027H44.5946V48.6487Z" fill="black"/>
<path d="M44.5946 52.7027H40.5405V56.7568H44.5946V52.7027Z" fill="black"/>
<path d="M44.5946 85.1352H40.5405V89.1892H44.5946V85.1352Z" fill="black"/>
<path d="M44.5946 89.1892H40.5405V93.2432H44.5946V89.1892Z" fill="black"/>
<path d="M44.5946 97.2973H40.5405V101.351H44.5946V97.2973Z" fill="black"/>
<path d="M44.5946 101.351H40.5405V105.405H44.5946V101.351Z" fill="black"/>
<path d="M44.5946 113.514H40.5405V117.568H44.5946V113.514Z" fill="black"/>
<path d="M44.5946 125.676H40.5405V129.73H44.5946V125.676Z" fill="black"/>
<path d="M44.5946 133.784H40.5405V137.838H44.5946V133.784Z" fill="black"/>
<path d="M44.5946 145.946H40.5405V150H44.5946V145.946Z" fill="black"/>
<path d="M48.6486 8.10812H44.5945V12.1622H48.6486V8.10812Z" fill="black"/>
<path d="M48.6486 12.1622H44.5945V16.2163H48.6486V12.1622Z" fill="black"/>
<path d="M48.6486 20.2703H44.5945V24.3244H48.6486V20.2703Z" fill="black"/>
<path d="M48.6486 32.4324H44.5945V36.4865H48.6486V32.4324Z" fill="black"/>
<path d="M48.6486 40.5406H44.5945V44.5946H48.6486V40.5406Z" fill="black"/>
<path d="M48.6486 44.5945H44.5945V48.6486H48.6486V44.5945Z" fill="black"/>
<path d="M48.6486 64.8648H44.5945V68.9189H48.6486V64.8648Z" fill="black"/>
<path d="M48.6486 72.973H44.5945V77.027H48.6486V72.973Z" fill="black"/>
<path d="M48.6486 77.027H44.5945V81.0811H48.6486V77.027Z" fill="black"/>
<path d="M48.6486 97.2973H44.5945V101.351H48.6486V97.2973Z" fill="black"/>
<path d="M48.6486 105.405H44.5945V109.459H48.6486V105.405Z" fill="black"/>
<path d="M48.6486 113.514H44.5945V117.568H48.6486V113.514Z" fill="black"/>
<path d="M48.6486 117.568H44.5945V121.622H48.6486V117.568Z" fill="black"/>
<path d="M48.6486 121.622H44.5945V125.676H48.6486V121.622Z" fill="black"/>
<path d="M48.6486 133.784H44.5945V137.838H48.6486V133.784Z" fill="black"/>
<path d="M48.6486 137.838H44.5945V141.892H48.6486V137.838Z" fill="black"/>
<path d="M48.6486 141.892H44.5945V145.946H48.6486V141.892Z" fill="black"/>
<path d="M52.7027 0H48.6487V4.05405H52.7027V0Z" fill="black"/>
<path d="M52.7027 20.2703H48.6487V24.3244H52.7027V20.2703Z" fill="black"/>
<path d="M52.7027 24.3243H48.6487V28.3784H52.7027V24.3243Z" fill="black"/>
<path d="M52.7027 28.3784H48.6487V32.4324H52.7027V28.3784Z" fill="black"/>
<path d="M52.7027 36.4865H48.6487V40.5405H52.7027V36.4865Z" fill="black"/>
<path d="M52.7027 40.5406H48.6487V44.5946H52.7027V40.5406Z" fill="black"/>
<path d="M52.7027 48.6487H48.6487V52.7027H52.7027V48.6487Z" fill="black"/>
<path d="M52.7027 60.8108H48.6487V64.8648H52.7027V60.8108Z" fill="black"/>
<path d="M52.7027 68.9189H48.6487V72.973H52.7027V68.9189Z" fill="black"/>
<path d="M52.7027 72.973H48.6487V77.027H52.7027V72.973Z" fill="black"/>
<path d="M52.7027 81.0811H48.6487V85.1351H52.7027V81.0811Z" fill="black"/>
<path d="M52.7027 93.2432H48.6487V97.2973H52.7027V93.2432Z" fill="black"/>
<path d="M52.7027 97.2973H48.6487V101.351H52.7027V97.2973Z" fill="black"/>
<path d="M52.7027 101.351H48.6487V105.405H52.7027V101.351Z" fill="black"/>
<path d="M52.7027 105.405H48.6487V109.459H52.7027V105.405Z" fill="black"/>
<path d="M52.7027 109.459H48.6487V113.513H52.7027V109.459Z" fill="black"/>
<path d="M52.7027 113.514H48.6487V117.568H52.7027V113.514Z" fill="black"/>
<path d="M52.7027 121.622H48.6487V125.676H52.7027V121.622Z" fill="black"/>
<path d="M52.7027 129.73H48.6487V133.784H52.7027V129.73Z" fill="black"/>
<path d="M52.7027 145.946H48.6487V150H52.7027V145.946Z" fill="black"/>
<path d="M56.7568 12.1622H52.7027V16.2163H56.7568V12.1622Z" fill="black"/>
<path d="M56.7568 16.2162H52.7027V20.2702H56.7568V16.2162Z" fill="black"/>
<path d="M56.7568 20.2703H52.7027V24.3244H56.7568V20.2703Z" fill="black"/>
<path d="M56.7568 40.5406H52.7027V44.5946H56.7568V40.5406Z" fill="black"/>
<path d="M56.7568 56.7568H52.7027V60.8108H56.7568V56.7568Z" fill="black"/>
<path d="M56.7568 68.9189H52.7027V72.973H56.7568V68.9189Z" fill="black"/>
<path d="M56.7568 85.1352H52.7027V89.1892H56.7568V85.1352Z" fill="black"/>
<path d="M56.7568 101.351H52.7027V105.405H56.7568V101.351Z" fill="black"/>
<path d="M56.7568 117.568H52.7027V121.622H56.7568V117.568Z" fill="black"/>
<path d="M56.7568 121.622H52.7027V125.676H56.7568V121.622Z" fill="black"/>
<path d="M56.7568 133.784H52.7027V137.838H56.7568V133.784Z" fill="black"/>
<path d="M60.8108 0H56.7568V4.05405H60.8108V0Z" fill="black"/>
<path d="M60.8108 8.10812H56.7568V12.1622H60.8108V8.10812Z" fill="black"/>
<path d="M60.8108 16.2162H56.7568V20.2702H60.8108V16.2162Z" fill="black"/>
<path d="M60.8108 20.2703H56.7568V24.3244H60.8108V20.2703Z" fill="black"/>
<path d="M60.8108 24.3243H56.7568V28.3784H60.8108V24.3243Z" fill="black"/>
<path d="M60.8108 36.4865H56.7568V40.5405H60.8108V36.4865Z" fill="black"/>
<path d="M60.8108 40.5406H56.7568V44.5946H60.8108V40.5406Z" fill="black"/>
<path d="M60.8108 52.7027H56.7568V56.7568H60.8108V52.7027Z" fill="black"/>
<path d="M60.8108 56.7568H56.7568V60.8108H60.8108V56.7568Z" fill="black"/>
<path d="M60.8108 60.8108H56.7568V64.8648H60.8108V60.8108Z" fill="black"/>
<path d="M60.8108 72.973H56.7568V77.027H60.8108V72.973Z" fill="black"/>
<path d="M60.8108 81.0811H56.7568V85.1351H60.8108V81.0811Z" fill="black"/>
<path d="M60.8108 85.1352H56.7568V89.1892H60.8108V85.1352Z" fill="black"/>
<path d="M60.8108 105.405H56.7568V109.459H60.8108V105.405Z" fill="black"/>
<path d="M60.8108 109.459H56.7568V113.513H60.8108V109.459Z" fill="black"/>
<path d="M60.8108 125.676H56.7568V129.73H60.8108V125.676Z" fill="black"/>
<path d="M60.8108 133.784H56.7568V137.838H60.8108V133.784Z" fill="black"/>
<path d="M60.8108 137.838H56.7568V141.892H60.8108V137.838Z" fill="black"/>
<path d="M60.8108 141.892H56.7568V145.946H60.8108V141.892Z" fill="black"/>
<path d="M60.8108 145.946H56.7568V150H60.8108V145.946Z" fill="black"/>
<path d="M64.8648 0H60.8108V4.05405H64.8648V0Z" fill="black"/>
<path d="M64.8648 8.10812H60.8108V12.1622H64.8648V8.10812Z" fill="black"/>
<path d="M64.8648 12.1622H60.8108V16.2163H64.8648V12.1622Z" fill="black"/>
<path d="M64.8648 16.2162H60.8108V20.2702H64.8648V16.2162Z" fill="black"/>
<path d="M64.8648 28.3784H60.8108V32.4324H64.8648V28.3784Z" fill="black"/>
<path d="M64.8648 36.4865H60.8108V40.5405H64.8648V36.4865Z" fill="black"/>
<path d="M64.8648 40.5406H60.8108V44.5946H64.8648V40.5406Z" fill="black"/>
<path d="M64.8648 44.5945H60.8108V48.6486H64.8648V44.5945Z" fill="black"/>
<path d="M64.8648 52.7027H60.8108V56.7568H64.8648V52.7027Z" fill="black"/>
<path d="M64.8648 56.7568H60.8108V60.8108H64.8648V56.7568Z" fill="black"/>
<path d="M64.8648 72.973H60.8108V77.027H64.8648V72.973Z" fill="black"/>
<path d="M64.8648 77.027H60.8108V81.0811H64.8648V77.027Z" fill="black"/>
<path d="M64.8648 85.1352H60.8108V89.1892H64.8648V85.1352Z" fill="black"/>
<path d="M64.8648 89.1892H60.8108V93.2432H64.8648V89.1892Z" fill="black"/>
<path d="M64.8648 97.2973H60.8108V101.351H64.8648V97.2973Z" fill="black"/>
<path d="M64.8648 101.351H60.8108V105.405H64.8648V101.351Z" fill="black"/>
<path d="M64.8648 105.405H60.8108V109.459H64.8648V105.405Z" fill="black"/>
<path d="M64.8648 109.459H60.8108V113.513H64.8648V109.459Z" fill="black"/>
<path d="M64.8648 117.568H60.8108V121.622H64.8648V117.568Z" fill="black"/>
<path d="M64.8648 121.622H60.8108V125.676H64.8648V121.622Z" fill="black"/>
<path d="M64.8648 125.676H60.8108V129.73H64.8648V125.676Z" fill="black"/>
<path d="M64.8648 129.73H60.8108V133.784H64.8648V129.73Z" fill="black"/>
<path d="M64.8648 133.784H60.8108V137.838H64.8648V133.784Z" fill="black"/>
<path d="M64.8648 137.838H60.8108V141.892H64.8648V137.838Z" fill="black"/>
<path d="M68.9189 0H64.8648V4.05405H68.9189V0Z" fill="black"/>
<path d="M68.9189 12.1622H64.8648V16.2163H68.9189V12.1622Z" fill="black"/>
<path d="M68.9189 16.2162H64.8648V20.2702H68.9189V16.2162Z" fill="black"/>
<path d="M68.9189 24.3243H64.8648V28.3784H68.9189V24.3243Z" fill="black"/>
<path d="M68.9189 28.3784H64.8648V32.4324H68.9189V28.3784Z" fill="black"/>
<path d="M68.9189 52.7027H64.8648V56.7568H68.9189V52.7027Z" fill="black"/>
<path d="M68.9189 64.8648H64.8648V68.9189H68.9189V64.8648Z" fill="black"/>
<path d="M68.9189 68.9189H64.8648V72.973H68.9189V68.9189Z" fill="black"/>
<path d="M68.9189 72.973H64.8648V77.027H68.9189V72.973Z" fill="black"/>
<path d="M68.9189 77.027H64.8648V81.0811H68.9189V77.027Z" fill="black"/>
<path d="M68.9189 89.1892H64.8648V93.2432H68.9189V89.1892Z" fill="black"/>
<path d="M68.9189 117.568H64.8648V121.622H68.9189V117.568Z" fill="black"/>
<path d="M68.9189 121.622H64.8648V125.676H68.9189V121.622Z" fill="black"/>
<path d="M68.9189 133.784H64.8648V137.838H68.9189V133.784Z" fill="black"/>
<path d="M68.9189 137.838H64.8648V141.892H68.9189V137.838Z" fill="black"/>
<path d="M68.9189 141.892H64.8648V145.946H68.9189V141.892Z" fill="black"/>
<path d="M72.973 8.10812H68.9189V12.1622H72.973V8.10812Z" fill="black"/>
<path d="M72.973 28.3784H68.9189V32.4324H72.973V28.3784Z" fill="black"/>
<path d="M72.973 32.4324H68.9189V36.4865H72.973V32.4324Z" fill="black"/>
<path d="M72.973 36.4865H68.9189V40.5405H72.973V36.4865Z" fill="black"/>
<path d="M72.973 40.5406H68.9189V44.5946H72.973V40.5406Z" fill="black"/>
<path d="M72.973 44.5945H68.9189V48.6486H72.973V44.5945Z" fill="black"/>
<path d="M72.973 48.6487H68.9189V52.7027H72.973V48.6487Z" fill="black"/>
<path d="M72.973 52.7027H68.9189V56.7568H72.973V52.7027Z" fill="black"/>
<path d="M72.973 56.7568H68.9189V60.8108H72.973V56.7568Z" fill="black"/>
<path d="M72.973 60.8108H68.9189V64.8648H72.973V60.8108Z" fill="black"/>
<path d="M72.973 64.8648H68.9189V68.9189H72.973V64.8648Z" fill="black"/>
<path d="M72.973 68.9189H68.9189V72.973H72.973V68.9189Z" fill="black"/>
<path d="M72.973 72.973H68.9189V77.027H72.973V72.973Z" fill="black"/>
<path d="M72.973 77.027H68.9189V81.0811H72.973V77.027Z" fill="black"/>
<path d="M72.973 81.0811H68.9189V85.1351H72.973V81.0811Z" fill="black"/>
<path d="M72.973 89.1892H68.9189V93.2432H72.973V89.1892Z" fill="black"/>
<path d="M72.973 93.2432H68.9189V97.2973H72.973V93.2432Z" fill="black"/>
<path d="M72.973 97.2973H68.9189V101.351H72.973V97.2973Z" fill="black"/>
<path d="M72.973 105.405H68.9189V109.459H72.973V105.405Z" fill="black"/>
<path d="M72.973 109.459H68.9189V113.513H72.973V109.459Z" fill="black"/>
<path d="M72.973 113.514H68.9189V117.568H72.973V113.514Z" fill="black"/>
<path d="M72.973 125.676H68.9189V129.73H72.973V125.676Z" fill="black"/>
<path d="M72.973 129.73H68.9189V133.784H72.973V129.73Z" fill="black"/>
<path d="M72.973 137.838H68.9189V141.892H72.973V137.838Z" fill="black"/>
<path d="M72.973 141.892H68.9189V145.946H72.973V141.892Z" fill="black"/>
<path d="M72.973 145.946H68.9189V150H72.973V145.946Z" fill="black"/>
<path d="M77.027 0H72.973V4.05405H77.027V0Z" fill="black"/>
<path d="M77.027 8.10812H72.973V12.1622H77.027V8.10812Z" fill="black"/>
<path d="M77.027 12.1622H72.973V16.2163H77.027V12.1622Z" fill="black"/>
<path d="M77.027 16.2162H72.973V20.2702H77.027V16.2162Z" fill="black"/>
<path d="M77.027 20.2703H72.973V24.3244H77.027V20.2703Z" fill="black"/>
<path d="M77.027 24.3243H72.973V28.3784H77.027V24.3243Z" fill="black"/>
<path d="M77.027 28.3784H72.973V32.4324H77.027V28.3784Z" fill="black"/>
<path d="M77.027 36.4865H72.973V40.5405H77.027V36.4865Z" fill="black"/>
<path d="M77.027 40.5406H72.973V44.5946H77.027V40.5406Z" fill="black"/>
<path d="M77.027 52.7027H72.973V56.7568H77.027V52.7027Z" fill="black"/>
<path d="M77.027 56.7568H72.973V60.8108H77.027V56.7568Z" fill="black"/>
<path d="M77.027 77.027H72.973V81.0811H77.027V77.027Z" fill="black"/>
<path d="M77.027 81.0811H72.973V85.1351H77.027V81.0811Z" fill="black"/>
<path d="M77.027 85.1352H72.973V89.1892H77.027V85.1352Z" fill="black"/>
<path d="M77.027 105.405H72.973V109.459H77.027V105.405Z" fill="black"/>
<path d="M77.027 109.459H72.973V113.513H77.027V109.459Z" fill="black"/>
<path d="M77.027 125.676H72.973V129.73H77.027V125.676Z" fill="black"/>
<path d="M77.027 133.784H72.973V137.838H77.027V133.784Z" fill="black"/>
<path d="M77.027 141.892H72.973V145.946H77.027V141.892Z" fill="black"/>
<path d="M81.0811 4.05408H77.027V8.10813H81.0811V4.05408Z" fill="black"/>
<path d="M81.0811 20.2703H77.027V24.3244H81.0811V20.2703Z" fill="black"/>
<path d="M81.0811 48.6487H77.027V52.7027H81.0811V48.6487Z" fill="black"/>
<path d="M81.0811 60.8108H77.027V64.8648H81.0811V60.8108Z" fill="black"/>
<path d="M81.0811 64.8648H77.027V68.9189H81.0811V64.8648Z" fill="black"/>
<path d="M81.0811 97.2973H77.027V101.351H81.0811V97.2973Z" fill="black"/>
<path d="M81.0811 113.514H77.027V117.568H81.0811V113.514Z" fill="black"/>
<path d="M81.0811 129.73H77.027V133.784H81.0811V129.73Z" fill="black"/>
<path d="M85.1351 4.05408H81.0811V8.10813H85.1351V4.05408Z" fill="black"/>
<path d="M85.1351 8.10812H81.0811V12.1622H85.1351V8.10812Z" fill="black"/>
<path d="M85.1351 24.3243H81.0811V28.3784H85.1351V24.3243Z" fill="black"/>
<path d="M85.1351 32.4324H81.0811V36.4865H85.1351V32.4324Z" fill="black"/>
<path d="M85.1351 48.6487H81.0811V52.7027H85.1351V48.6487Z" fill="black"/>
<path d="M85.1351 52.7027H81.0811V56.7568H85.1351V52.7027Z" fill="black"/>
<path d="M85.1351 56.7568H81.0811V60.8108H85.1351V56.7568Z" fill="black"/>
<path d="M85.1351 72.973H81.0811V77.027H85.1351V72.973Z" fill="black"/>
<path d="M85.1351 81.0811H81.0811V85.1351H85.1351V81.0811Z" fill="black"/>
<path d="M85.1351 97.2973H81.0811V101.351H85.1351V97.2973Z" fill="black"/>
<path d="M85.1351 101.351H81.0811V105.405H85.1351V101.351Z" fill="black"/>
<path d="M85.1351 105.405H81.0811V109.459H85.1351V105.405Z" fill="black"/>
<path d="M85.1351 109.459H81.0811V113.513H85.1351V109.459Z" fill="black"/>
<path d="M85.1351 113.514H81.0811V117.568H85.1351V113.514Z" fill="black"/>
<path d="M85.1351 125.676H81.0811V129.73H85.1351V125.676Z" fill="black"/>
<path d="M85.1351 137.838H81.0811V141.892H85.1351V137.838Z" fill="black"/>
<path d="M85.1351 145.946H81.0811V150H85.1351V145.946Z" fill="black"/>
<path d="M89.1892 8.10812H85.1352V12.1622H89.1892V8.10812Z" fill="black"/>
<path d="M89.1892 16.2162H85.1352V20.2702H89.1892V16.2162Z" fill="black"/>
<path d="M89.1892 20.2703H85.1352V24.3244H89.1892V20.2703Z" fill="black"/>
<path d="M89.1892 28.3784H85.1352V32.4324H89.1892V28.3784Z" fill="black"/>
<path d="M89.1892 32.4324H85.1352V36.4865H89.1892V32.4324Z" fill="black"/>
<path d="M89.1892 40.5406H85.1352V44.5946H89.1892V40.5406Z" fill="black"/>
<path d="M89.1892 44.5945H85.1352V48.6486H89.1892V44.5945Z" fill="black"/>
<path d="M89.1892 48.6487H85.1352V52.7027H89.1892V48.6487Z" fill="black"/>
<path d="M89.1892 60.8108H85.1352V64.8648H89.1892V60.8108Z" fill="black"/>
<path d="M89.1892 64.8648H85.1352V68.9189H89.1892V64.8648Z" fill="black"/>
<path d="M89.1892 72.973H85.1352V77.027H89.1892V72.973Z" fill="black"/>
<path d="M89.1892 77.027H85.1352V81.0811H89.1892V77.027Z" fill="black"/>
<path d="M89.1892 81.0811H85.1352V85.1351H89.1892V81.0811Z" fill="black"/>
<path d="M89.1892 93.2432H85.1352V97.2973H89.1892V93.2432Z" fill="black"/>
<path d="M89.1892 97.2973H85.1352V101.351H89.1892V97.2973Z" fill="black"/>
<path d="M89.1892 105.405H85.1352V109.459H89.1892V105.405Z" fill="black"/>
<path d="M89.1892 109.459H85.1352V113.513H89.1892V109.459Z" fill="black"/>
<path d="M89.1892 113.514H85.1352V117.568H89.1892V113.514Z" fill="black"/>
<path d="M89.1892 125.676H85.1352V129.73H89.1892V125.676Z" fill="black"/>
<path d="M89.1892 129.73H85.1352V133.784H89.1892V129.73Z" fill="black"/>
<path d="M89.1892 141.892H85.1352V145.946H89.1892V141.892Z" fill="black"/>
<path d="M89.1892 145.946H85.1352V150H89.1892V145.946Z" fill="black"/>
<path d="M93.2432 8.10812H89.1892V12.1622H93.2432V8.10812Z" fill="black"/>
<path d="M93.2432 20.2703H89.1892V24.3244H93.2432V20.2703Z" fill="black"/>
<path d="M93.2432 24.3243H89.1892V28.3784H93.2432V24.3243Z" fill="black"/>
<path d="M93.2432 32.4324H89.1892V36.4865H93.2432V32.4324Z" fill="black"/>
<path d="M93.2432 36.4865H89.1892V40.5405H93.2432V36.4865Z" fill="black"/>
<path d="M93.2432 48.6487H89.1892V52.7027H93.2432V48.6487Z" fill="black"/>
<path d="M93.2432 52.7027H89.1892V56.7568H93.2432V52.7027Z" fill="black"/>
<path d="M93.2432 56.7568H89.1892V60.8108H93.2432V56.7568Z" fill="black"/>
<path d="M93.2432 60.8108H89.1892V64.8648H93.2432V60.8108Z" fill="black"/>
<path d="M93.2432 72.973H89.1892V77.027H93.2432V72.973Z" fill="black"/>
<path d="M93.2432 77.027H89.1892V81.0811H93.2432V77.027Z" fill="black"/>
<path d="M93.2432 81.0811H89.1892V85.1351H93.2432V81.0811Z" fill="black"/>
<path d="M93.2432 85.1352H89.1892V89.1892H93.2432V85.1352Z" fill="black"/>
<path d="M93.2432 97.2973H89.1892V101.351H93.2432V97.2973Z" fill="black"/>
<path d="M93.2432 113.514H89.1892V117.568H93.2432V113.514Z" fill="black"/>
<path d="M93.2432 121.622H89.1892V125.676H93.2432V121.622Z" fill="black"/>
<path d="M93.2432 125.676H89.1892V129.73H93.2432V125.676Z" fill="black"/>
<path d="M93.2432 129.73H89.1892V133.784H93.2432V129.73Z" fill="black"/>
<path d="M93.2432 133.784H89.1892V137.838H93.2432V133.784Z" fill="black"/>
<path d="M93.2432 137.838H89.1892V141.892H93.2432V137.838Z" fill="black"/>
<path d="M93.2432 145.946H89.1892V150H93.2432V145.946Z" fill="black"/>
<path d="M97.2973 0H93.2432V4.05405H97.2973V0Z" fill="black"/>
<path d="M97.2973 8.10812H93.2432V12.1622H97.2973V8.10812Z" fill="black"/>
<path d="M97.2973 12.1622H93.2432V16.2163H97.2973V12.1622Z" fill="black"/>
<path d="M97.2973 16.2162H93.2432V20.2702H97.2973V16.2162Z" fill="black"/>
<path d="M97.2973 28.3784H93.2432V32.4324H97.2973V28.3784Z" fill="black"/>
<path d="M97.2973 36.4865H93.2432V40.5405H97.2973V36.4865Z" fill="black"/>
<path d="M97.2973 40.5406H93.2432V44.5946H97.2973V40.5406Z" fill="black"/>
<path d="M97.2973 44.5945H93.2432V48.6486H97.2973V44.5945Z" fill="black"/>
<path d="M97.2973 48.6487H93.2432V52.7027H97.2973V48.6487Z" fill="black"/>
<path d="M97.2973 52.7027H93.2432V56.7568H97.2973V52.7027Z" fill="black"/>
<path d="M97.2973 56.7568H93.2432V60.8108H97.2973V56.7568Z" fill="black"/>
<path d="M97.2973 60.8108H93.2432V64.8648H97.2973V60.8108Z" fill="black"/>
<path d="M97.2973 68.9189H93.2432V72.973H97.2973V68.9189Z" fill="black"/>
<path d="M97.2973 72.973H93.2432V77.027H97.2973V72.973Z" fill="black"/>
<path d="M97.2973 77.027H93.2432V81.0811H97.2973V77.027Z" fill="black"/>
<path d="M97.2973 85.1352H93.2432V89.1892H97.2973V85.1352Z" fill="black"/>
<path d="M97.2973 89.1892H93.2432V93.2432H97.2973V89.1892Z" fill="black"/>
<path d="M97.2973 93.2432H93.2432V97.2973H97.2973V93.2432Z" fill="black"/>
<path d="M97.2973 101.351H93.2432V105.405H97.2973V101.351Z" fill="black"/>
<path d="M97.2973 105.405H93.2432V109.459H97.2973V105.405Z" fill="black"/>
<path d="M97.2973 117.568H93.2432V121.622H97.2973V117.568Z" fill="black"/>
<path d="M97.2973 121.622H93.2432V125.676H97.2973V121.622Z" fill="black"/>
<path d="M97.2973 125.676H93.2432V129.73H97.2973V125.676Z" fill="black"/>
<path d="M97.2973 133.784H93.2432V137.838H97.2973V133.784Z" fill="black"/>
<path d="M97.2973 137.838H93.2432V141.892H97.2973V137.838Z" fill="black"/>
<path d="M101.351 0H97.2973V4.05405H101.351V0Z" fill="black"/>
<path d="M101.351 4.05408H97.2973V8.10813H101.351V4.05408Z" fill="black"/>
<path d="M101.351 8.10812H97.2973V12.1622H101.351V8.10812Z" fill="black"/>
<path d="M101.351 12.1622H97.2973V16.2163H101.351V12.1622Z" fill="black"/>
<path d="M101.351 24.3243H97.2973V28.3784H101.351V24.3243Z" fill="black"/>
<path d="M101.351 32.4324H97.2973V36.4865H101.351V32.4324Z" fill="black"/>
<path d="M101.351 48.6487H97.2973V52.7027H101.351V48.6487Z" fill="black"/>
<path d="M101.351 60.8108H97.2973V64.8648H101.351V60.8108Z" fill="black"/>
<path d="M101.351 81.0811H97.2973V85.1351H101.351V81.0811Z" fill="black"/>
<path d="M101.351 85.1352H97.2973V89.1892H101.351V85.1352Z" fill="black"/>
<path d="M101.351 89.1892H97.2973V93.2432H101.351V89.1892Z" fill="black"/>
<path d="M101.351 93.2432H97.2973V97.2973H101.351V93.2432Z" fill="black"/>
<path d="M101.351 97.2973H97.2973V101.351H101.351V97.2973Z" fill="black"/>
<path d="M101.351 121.622H97.2973V125.676H101.351V121.622Z" fill="black"/>
<path d="M101.351 125.676H97.2973V129.73H101.351V125.676Z" fill="black"/>
<path d="M101.351 137.838H97.2973V141.892H101.351V137.838Z" fill="black"/>
<path d="M105.405 4.05408H101.351V8.10813H105.405V4.05408Z" fill="black"/>
<path d="M105.405 12.1622H101.351V16.2163H105.405V12.1622Z" fill="black"/>
<path d="M105.405 16.2162H101.351V20.2702H105.405V16.2162Z" fill="black"/>
<path d="M105.405 20.2703H101.351V24.3244H105.405V20.2703Z" fill="black"/>
<path d="M105.405 36.4865H101.351V40.5405H105.405V36.4865Z" fill="black"/>
<path d="M105.405 40.5406H101.351V44.5946H105.405V40.5406Z" fill="black"/>
<path d="M105.405 52.7027H101.351V56.7568H105.405V52.7027Z" fill="black"/>
<path d="M105.405 68.9189H101.351V72.973H105.405V68.9189Z" fill="black"/>
<path d="M105.405 89.1892H101.351V93.2432H105.405V89.1892Z" fill="black"/>
<path d="M105.405 101.351H101.351V105.405H105.405V101.351Z" fill="black"/>
<path d="M105.405 117.568H101.351V121.622H105.405V117.568Z" fill="black"/>
<path d="M105.405 137.838H101.351V141.892H105.405V137.838Z" fill="black"/>
<path d="M109.459 0H105.405V4.05405H109.459V0Z" fill="black"/>
<path d="M109.459 4.05408H105.405V8.10813H109.459V4.05408Z" fill="black"/>
<path d="M109.459 8.10812H105.405V12.1622H109.459V8.10812Z" fill="black"/>
<path d="M109.459 12.1622H105.405V16.2163H109.459V12.1622Z" fill="black"/>
<path d="M109.459 16.2162H105.405V20.2702H109.459V16.2162Z" fill="black"/>
<path d="M109.459 24.3243H105.405V28.3784H109.459V24.3243Z" fill="black"/>
<path d="M109.459 28.3784H105.405V32.4324H109.459V28.3784Z" fill="black"/>
<path d="M109.459 44.5945H105.405V48.6486H109.459V44.5945Z" fill="black"/>
<path d="M109.459 48.6487H105.405V52.7027H109.459V48.6487Z" fill="black"/>
<path d="M109.459 52.7027H105.405V56.7568H109.459V52.7027Z" fill="black"/>
<path d="M109.459 72.973H105.405V77.027H109.459V72.973Z" fill="black"/>
<path d="M109.459 85.1352H105.405V89.1892H109.459V85.1352Z" fill="black"/>
<path d="M109.459 89.1892H105.405V93.2432H109.459V89.1892Z" fill="black"/>
<path d="M109.459 93.2432H105.405V97.2973H109.459V93.2432Z" fill="black"/>
<path d="M109.459 97.2973H105.405V101.351H109.459V97.2973Z" fill="black"/>
<path d="M109.459 101.351H105.405V105.405H109.459V101.351Z" fill="black"/>
<path d="M109.459 117.568H105.405V121.622H109.459V117.568Z" fill="black"/>
<path d="M109.459 121.622H105.405V125.676H109.459V121.622Z" fill="black"/>
<path d="M109.459 125.676H105.405V129.73H109.459V125.676Z" fill="black"/>
<path d="M109.459 133.784H105.405V137.838H109.459V133.784Z" fill="black"/>
<path d="M109.459 137.838H105.405V141.892H109.459V137.838Z" fill="black"/>
<path d="M113.513 0H109.459V4.05405H113.513V0Z" fill="black"/>
<path d="M113.513 16.2162H109.459V20.2702H113.513V16.2162Z" fill="black"/>
<path d="M113.513 32.4324H109.459V36.4865H113.513V32.4324Z" fill="black"/>
<path d="M113.513 36.4865H109.459V40.5405H113.513V36.4865Z" fill="black"/>
<path d="M113.513 40.5406H109.459V44.5946H113.513V40.5406Z" fill="black"/>
<path d="M113.513 48.6487H109.459V52.7027H113.513V48.6487Z" fill="black"/>
<path d="M113.513 52.7027H109.459V56.7568H113.513V52.7027Z" fill="black"/>
<path d="M113.513 56.7568H109.459V60.8108H113.513V56.7568Z" fill="black"/>
<path d="M113.513 68.9189H109.459V72.973H113.513V68.9189Z" fill="black"/>
<path d="M113.513 72.973H109.459V77.027H113.513V72.973Z" fill="black"/>
<path d="M113.513 77.027H109.459V81.0811H113.513V77.027Z" fill="black"/>
<path d="M113.513 85.1352H109.459V89.1892H113.513V85.1352Z" fill="black"/>
<path d="M113.513 89.1892H109.459V93.2432H113.513V89.1892Z" fill="black"/>
<path d="M113.513 93.2432H109.459V97.2973H113.513V93.2432Z" fill="black"/>
<path d="M113.513 97.2973H109.459V101.351H113.513V97.2973Z" fill="black"/>
<path d="M113.513 101.351H109.459V105.405H113.513V101.351Z" fill="black"/>
<path d="M113.513 105.405H109.459V109.459H113.513V105.405Z" fill="black"/>
<path d="M113.513 117.568H109.459V121.622H113.513V117.568Z" fill="black"/>
<path d="M113.513 133.784H109.459V137.838H113.513V133.784Z" fill="black"/>
<path d="M113.513 137.838H109.459V141.892H113.513V137.838Z" fill="black"/>
<path d="M113.513 141.892H109.459V145.946H113.513V141.892Z" fill="black"/>
<path d="M113.513 145.946H109.459V150H113.513V145.946Z" fill="black"/>
<path d="M117.568 0H113.514V4.05405H117.568V0Z" fill="black"/>
<path d="M117.568 4.05408H113.514V8.10813H117.568V4.05408Z" fill="black"/>
<path d="M117.568 8.10812H113.514V12.1622H117.568V8.10812Z" fill="black"/>
<path d="M117.568 12.1622H113.514V16.2163H117.568V12.1622Z" fill="black"/>
<path d="M117.568 16.2162H113.514V20.2702H117.568V16.2162Z" fill="black"/>
<path d="M117.568 20.2703H113.514V24.3244H117.568V20.2703Z" fill="black"/>
<path d="M117.568 24.3243H113.514V28.3784H117.568V24.3243Z" fill="black"/>
<path d="M117.568 36.4865H113.514V40.5405H117.568V36.4865Z" fill="black"/>
<path d="M117.568 52.7027H113.514V56.7568H117.568V52.7027Z" fill="black"/>
<path d="M117.568 60.8108H113.514V64.8648H117.568V60.8108Z" fill="black"/>
<path d="M117.568 68.9189H113.514V72.973H117.568V68.9189Z" fill="black"/>
<path d="M117.568 72.973H113.514V77.027H117.568V72.973Z" fill="black"/>
<path d="M117.568 77.027H113.514V81.0811H117.568V77.027Z" fill="black"/>
<path d="M117.568 93.2432H113.514V97.2973H117.568V93.2432Z" fill="black"/>
<path d="M117.568 97.2973H113.514V101.351H117.568V97.2973Z" fill="black"/>
<path d="M117.568 101.351H113.514V105.405H117.568V101.351Z" fill="black"/>
<path d="M117.568 105.405H113.514V109.459H117.568V105.405Z" fill="black"/>
<path d="M117.568 109.459H113.514V113.513H117.568V109.459Z" fill="black"/>
<path d="M117.568 113.514H113.514V117.568H117.568V113.514Z" fill="black"/>
<path d="M117.568 117.568H113.514V121.622H117.568V117.568Z" fill="black"/>
<path d="M117.568 121.622H113.514V125.676H117.568V121.622Z" fill="black"/>
<path d="M117.568 125.676H113.514V129.73H117.568V125.676Z" fill="black"/>
<path d="M117.568 129.73H113.514V133.784H117.568V129.73Z" fill="black"/>
<path d="M117.568 137.838H113.514V141.892H117.568V137.838Z" fill="black"/>
<path d="M121.622 44.5945H117.568V48.6486H121.622V44.5945Z" fill="black"/>
<path d="M121.622 48.6487H117.568V52.7027H121.622V48.6487Z" fill="black"/>
<path d="M121.622 64.8648H117.568V68.9189H121.622V64.8648Z" fill="black"/>
<path d="M121.622 72.973H117.568V77.027H121.622V72.973Z" fill="black"/>
<path d="M121.622 81.0811H117.568V85.1351H121.622V81.0811Z" fill="black"/>
<path d="M121.622 97.2973H117.568V101.351H121.622V97.2973Z" fill="black"/>
<path d="M121.622 101.351H117.568V105.405H121.622V101.351Z" fill="black"/>
<path d="M121.622 105.405H117.568V109.459H121.622V105.405Z" fill="black"/>
<path d="M121.622 113.514H117.568V117.568H121.622V113.514Z" fill="black"/>
<path d="M121.622 129.73H117.568V133.784H121.622V129.73Z" fill="black"/>
<path d="M121.622 133.784H117.568V137.838H121.622V133.784Z" fill="black"/>
<path d="M121.622 141.892H117.568V145.946H121.622V141.892Z" fill="black"/>
<path d="M121.622 145.946H117.568V150H121.622V145.946Z" fill="black"/>
<path d="M125.676 0H121.622V4.05405H125.676V0Z" fill="black"/>
<path d="M125.676 4.05408H121.622V8.10813H125.676V4.05408Z" fill="black"/>
<path d="M125.676 8.10812H121.622V12.1622H125.676V8.10812Z" fill="black"/>
<path d="M125.676 12.1622H121.622V16.2163H125.676V12.1622Z" fill="black"/>
<path d="M125.676 16.2162H121.622V20.2702H125.676V16.2162Z" fill="black"/>
<path d="M125.676 20.2703H121.622V24.3244H125.676V20.2703Z" fill="black"/>
<path d="M125.676 24.3243H121.622V28.3784H125.676V24.3243Z" fill="black"/>
<path d="M125.676 40.5406H121.622V44.5946H125.676V40.5406Z" fill="black"/>
<path d="M125.676 44.5945H121.622V48.6486H125.676V44.5945Z" fill="black"/>
<path d="M125.676 48.6487H121.622V52.7027H125.676V48.6487Z" fill="black"/>
<path d="M125.676 64.8648H121.622V68.9189H125.676V64.8648Z" fill="black"/>
<path d="M125.676 77.027H121.622V81.0811H125.676V77.027Z" fill="black"/>
<path d="M125.676 81.0811H121.622V85.1351H125.676V81.0811Z" fill="black"/>
<path d="M125.676 97.2973H121.622V101.351H125.676V97.2973Z" fill="black"/>
<path d="M125.676 109.459H121.622V113.513H125.676V109.459Z" fill="black"/>
<path d="M125.676 113.514H121.622V117.568H125.676V113.514Z" fill="black"/>
<path d="M125.676 121.622H121.622V125.676H125.676V121.622Z" fill="black"/>
<path d="M125.676 129.73H121.622V133.784H125.676V129.73Z" fill="black"/>
<path d="M125.676 133.784H121.622V137.838H125.676V133.784Z" fill="black"/>
<path d="M125.676 137.838H121.622V141.892H125.676V137.838Z" fill="black"/>
<path d="M129.73 0H125.676V4.05405H129.73V0Z" fill="black"/>
<path d="M129.73 24.3243H125.676V28.3784H129.73V24.3243Z" fill="black"/>
<path d="M129.73 32.4324H125.676V36.4865H129.73V32.4324Z" fill="black"/>
<path d="M129.73 48.6487H125.676V52.7027H129.73V48.6487Z" fill="black"/>
<path d="M129.73 52.7027H125.676V56.7568H129.73V52.7027Z" fill="black"/>
<path d="M129.73 56.7568H125.676V60.8108H129.73V56.7568Z" fill="black"/>
<path d="M129.73 72.973H125.676V77.027H129.73V72.973Z" fill="black"/>
<path d="M129.73 77.027H125.676V81.0811H129.73V77.027Z" fill="black"/>
<path d="M129.73 81.0811H125.676V85.1351H129.73V81.0811Z" fill="black"/>
<path d="M129.73 89.1892H125.676V93.2432H129.73V89.1892Z" fill="black"/>
<path d="M129.73 105.405H125.676V109.459H129.73V105.405Z" fill="black"/>
<path d="M129.73 109.459H125.676V113.513H129.73V109.459Z" fill="black"/>
<path d="M129.73 113.514H125.676V117.568H129.73V113.514Z" fill="black"/>
<path d="M129.73 129.73H125.676V133.784H129.73V129.73Z" fill="black"/>
<path d="M129.73 137.838H125.676V141.892H129.73V137.838Z" fill="black"/>
<path d="M129.73 145.946H125.676V150H129.73V145.946Z" fill="black"/>
<path d="M133.784 0H129.73V4.05405H133.784V0Z" fill="black"/>
<path d="M133.784 8.10812H129.73V12.1622H133.784V8.10812Z" fill="black"/>
<path d="M133.784 12.1622H129.73V16.2163H133.784V12.1622Z" fill="black"/>
<path d="M133.784 16.2162H129.73V20.2702H133.784V16.2162Z" fill="black"/>
<path d="M133.784 24.3243H129.73V28.3784H133.784V24.3243Z" fill="black"/>
<path d="M133.784 36.4865H129.73V40.5405H133.784V36.4865Z" fill="black"/>
<path d="M133.784 52.7027H129.73V56.7568H133.784V52.7027Z" fill="black"/>
<path d="M133.784 56.7568H129.73V60.8108H133.784V56.7568Z" fill="black"/>
<path d="M133.784 68.9189H129.73V72.973H133.784V68.9189Z" fill="black"/>
<path d="M133.784 85.1352H129.73V89.1892H133.784V85.1352Z" fill="black"/>
<path d="M133.784 89.1892H129.73V93.2432H133.784V89.1892Z" fill="black"/>
<path d="M133.784 101.351H129.73V105.405H133.784V101.351Z" fill="black"/>
<path d="M133.784 113.514H129.73V117.568H133.784V113.514Z" fill="black"/>
<path d="M133.784 117.568H129.73V121.622H133.784V117.568Z" fill="black"/>
<path d="M133.784 121.622H129.73V125.676H133.784V121.622Z" fill="black"/>
<path d="M133.784 125.676H129.73V129.73H133.784V125.676Z" fill="black"/>
<path d="M133.784 129.73H129.73V133.784H133.784V129.73Z" fill="black"/>
<path d="M133.784 145.946H129.73V150H133.784V145.946Z" fill="black"/>
<path d="M137.838 0H133.784V4.05405H137.838V0Z" fill="black"/>
<path d="M137.838 8.10812H133.784V12.1622H137.838V8.10812Z" fill="black"/>
<path d="M137.838 12.1622H133.784V16.2163H137.838V12.1622Z" fill="black"/>
<path d="M137.838 16.2162H133.784V20.2702H137.838V16.2162Z" fill="black"/>
<path d="M137.838 24.3243H133.784V28.3784H137.838V24.3243Z" fill="black"/>
<path d="M137.838 32.4324H133.784V36.4865H137.838V32.4324Z" fill="black"/>
<path d="M137.838 36.4865H133.784V40.5405H137.838V36.4865Z" fill="black"/>
<path d="M137.838 52.7027H133.784V56.7568H137.838V52.7027Z" fill="black"/>
<path d="M137.838 72.973H133.784V77.027H137.838V72.973Z" fill="black"/>
<path d="M137.838 81.0811H133.784V85.1351H137.838V81.0811Z" fill="black"/>
<path d="M137.838 113.514H133.784V117.568H137.838V113.514Z" fill="black"/>
<path d="M137.838 117.568H133.784V121.622H137.838V117.568Z" fill="black"/>
<path d="M137.838 121.622H133.784V125.676H137.838V121.622Z" fill="black"/>
<path d="M137.838 133.784H133.784V137.838H137.838V133.784Z" fill="black"/>
<path d="M137.838 141.892H133.784V145.946H137.838V141.892Z" fill="black"/>
<path d="M141.892 0H137.838V4.05405H141.892V0Z" fill="black"/>
<path d="M141.892 8.10812H137.838V12.1622H141.892V8.10812Z" fill="black"/>
<path d="M141.892 12.1622H137.838V16.2163H141.892V12.1622Z" fill="black"/>
<path d="M141.892 16.2162H137.838V20.2702H141.892V16.2162Z" fill="black"/>
<path d="M141.892 24.3243H137.838V28.3784H141.892V24.3243Z" fill="black"/>
<path d="M141.892 32.4324H137.838V36.4865H141.892V32.4324Z" fill="black"/>
<path d="M141.892 44.5945H137.838V48.6486H141.892V44.5945Z" fill="black"/>
<path d="M141.892 48.6487H137.838V52.7027H141.892V48.6487Z" fill="black"/>
<path d="M141.892 56.7568H137.838V60.8108H141.892V56.7568Z" fill="black"/>
<path d="M141.892 60.8108H137.838V64.8648H141.892V60.8108Z" fill="black"/>
<path d="M141.892 64.8648H137.838V68.9189H141.892V64.8648Z" fill="black"/>
<path d="M141.892 77.027H137.838V81.0811H141.892V77.027Z" fill="black"/>
<path d="M141.892 81.0811H137.838V85.1351H141.892V81.0811Z" fill="black"/>
<path d="M141.892 93.2432H137.838V97.2973H141.892V93.2432Z" fill="black"/>
<path d="M141.892 97.2973H137.838V101.351H141.892V97.2973Z" fill="black"/>
<path d="M141.892 101.351H137.838V105.405H141.892V101.351Z" fill="black"/>
<path d="M141.892 105.405H137.838V109.459H141.892V105.405Z" fill="black"/>
<path d="M141.892 109.459H137.838V113.513H141.892V109.459Z" fill="black"/>
<path d="M141.892 113.514H137.838V117.568H141.892V113.514Z" fill="black"/>
<path d="M141.892 121.622H137.838V125.676H141.892V121.622Z" fill="black"/>
<path d="M141.892 125.676H137.838V129.73H141.892V125.676Z" fill="black"/>
<path d="M141.892 129.73H137.838V133.784H141.892V129.73Z" fill="black"/>
<path d="M141.892 137.838H137.838V141.892H141.892V137.838Z" fill="black"/>
<path d="M141.892 141.892H137.838V145.946H141.892V141.892Z" fill="black"/>
<path d="M141.892 145.946H137.838V150H141.892V145.946Z" fill="black"/>
<path d="M145.946 0H141.892V4.05405H145.946V0Z" fill="black"/>
<path d="M145.946 24.3243H141.892V28.3784H145.946V24.3243Z" fill="black"/>
<path d="M145.946 32.4324H141.892V36.4865H145.946V32.4324Z" fill="black"/>
<path d="M145.946 36.4865H141.892V40.5405H145.946V36.4865Z" fill="black"/>
<path d="M145.946 44.5945H141.892V48.6486H145.946V44.5945Z" fill="black"/>
<path d="M145.946 56.7568H141.892V60.8108H145.946V56.7568Z" fill="black"/>
<path d="M145.946 68.9189H141.892V72.973H145.946V68.9189Z" fill="black"/>
<path d="M145.946 93.2432H141.892V97.2973H145.946V93.2432Z" fill="black"/>
<path d="M145.946 109.459H141.892V113.513H145.946V109.459Z" fill="black"/>
<path d="M145.946 113.514H141.892V117.568H145.946V113.514Z" fill="black"/>
<path d="M145.946 117.568H141.892V121.622H145.946V117.568Z" fill="black"/>
<path d="M145.946 125.676H141.892V129.73H145.946V125.676Z" fill="black"/>
<path d="M145.946 141.892H141.892V145.946H145.946V141.892Z" fill="black"/>
<path d="M145.946 145.946H141.892V150H145.946V145.946Z" fill="black"/>
<path d="M150 0H145.946V4.05405H150V0Z" fill="black"/>
<path d="M150 4.05408H145.946V8.10813H150V4.05408Z" fill="black"/>
<path d="M150 8.10812H145.946V12.1622H150V8.10812Z" fill="black"/>
<path d="M150 12.1622H145.946V16.2163H150V12.1622Z" fill="black"/>
<path d="M150 16.2162H145.946V20.2702H150V16.2162Z" fill="black"/>
<path d="M150 20.2703H145.946V24.3244H150V20.2703Z" fill="black"/>
<path d="M150 24.3243H145.946V28.3784H150V24.3243Z" fill="black"/>
<path d="M150 32.4324H145.946V36.4865H150V32.4324Z" fill="black"/>
<path d="M150 48.6487H145.946V52.7027H150V48.6487Z" fill="black"/>
<path d="M150 60.8108H145.946V64.8648H150V60.8108Z" fill="black"/>
<path d="M150 64.8648H145.946V68.9189H150V64.8648Z" fill="black"/>
<path d="M150 113.514H145.946V117.568H150V113.514Z" fill="black"/>
<path d="M150 117.568H145.946V121.622H150V117.568Z" fill="black"/>
<path d="M150 125.676H145.946V129.73H150V125.676Z" fill="black"/>
<path d="M150 129.73H145.946V133.784H150V129.73Z" fill="black"/>
<path d="M150 145.946H145.946V150H150V145.946Z" fill="black"/>
</svg>
