<svg width="44" height="44" viewBox="0 0 44 44" fill="none" xmlns="http://www.w3.org/2000/svg">
<path d="M22 0C10.0738 0 0 10.0738 0 22C0 33.9262 10.0738 44 22 44C33.9262 44 44 33.9262 44 22C44 10.0738 33.9262 0 22 0ZM22 11C25.7994 11 28.6 13.7984 28.6 17.6C28.6 21.4016 25.7994 24.2 22 24.2C18.2028 24.2 15.4 21.4016 15.4 17.6C15.4 13.7984 18.2028 11 22 11ZM10.7668 32.4984C12.7402 29.5944 16.0314 27.6584 19.8 27.6584H24.2C27.9708 27.6584 31.2598 29.5944 33.2332 32.4984C30.4216 35.508 26.433 37.4 22 37.4C17.567 37.4 13.5784 35.508 10.7668 32.4984Z" fill="#E02B59"/>
</svg>
