<svg width="38" height="38" viewBox="0 0 38 38" fill="none" xmlns="http://www.w3.org/2000/svg">
<g clip-path="url(#clip0_1216_835)">
<path d="M19 38C29.4934 38 38 29.4934 38 19C38 8.50659 29.4934 0 19 0C8.50659 0 0 8.50659 0 19C0 29.4934 8.50659 38 19 38Z" fill="white"/>
<path d="M37.9998 18.9999C37.9998 11.4671 33.6161 4.9585 27.2607 1.88525V36.1145C33.6161 33.0413 37.9998 26.5327 37.9998 18.9999Z" fill="#D80027"/>
<path d="M0 18.9999C0 26.5327 4.38373 33.0413 10.7392 36.1146V1.88525C4.38373 4.9585 0 11.4671 0 18.9999Z" fill="#D80027"/>
<path d="M22.3046 21.4782L25.6089 19.8261L23.9568 19V17.3478L20.6524 19L22.3046 15.6956H20.6524L19.0002 13.2174L17.348 15.6956H15.6959L17.348 19L14.0437 17.3478V19L12.3916 19.8261L15.6959 21.4782L14.8698 23.1304H18.1742V25.6087H19.8263V23.1304H23.1306L22.3046 21.4782Z" fill="#D80027"/>
</g>
<defs>
<clipPath id="clip0_1216_835">
<rect width="38" height="38" fill="white"/>
</clipPath>
</defs>
</svg>
