<?xml version="1.0" encoding="utf-8"?>
<!-- Generator: Adobe Illustrator 25.0.1, SVG Export Plug-In . SVG Version: 6.00 Build 0)  -->
<svg width="38" height="38" version="1.0" id="katman_1" xmlns="http://www.w3.org/2000/svg" xmlns:xlink="http://www.w3.org/1999/xlink" x="0px" y="0px"
	 viewBox="0 0 600 400" style="enable-background:new 0 0 600 400;" xml:space="preserve">
<style type="text/css">
	.st0{fill-rule:evenodd;clip-rule:evenodd;fill:#FFE804;}
	.st1{fill-rule:evenodd;clip-rule:evenodd;}
</style>
<g>

		<image style="overflow:visible;enable-background:new    ;" width="256" height="256" xlink:href="BAD293DE.png"  transform="matrix(1.0938 0 0 1.0938 161 60.5556)">
	</image>
	<circle class="st0" cx="301" cy="200.6" r="140"/>
	<g>
		<path class="st1" d="M321.5,128.4c0.9-2.2,1.4-4.3,1.5-6.3c0.5-4.2-0.5-7.5-3-8.5c-2.4-1-5.5,0.6-8.2,3.7l0-0.6
			c0-8.6-4-15.7-9-15.7c-5,0-9,7-9,15.7c0,0.6,0,1.2,0.1,1.8c-3-4-7-6.1-9.8-4.8c-3.5,1.7-4,8-1,14.2c0.5,1,1.6,2.8,2.3,3.7
			c-38.5,6-60.4,36.4-63.2,86.4h21.5c2.3-41.2,23.6-64.6,59.1-64.6c31.8,0,55.6,22.4,55.3,64.6h21.5c0.4-49.8-27.8-82-60.1-86.2
			C320.3,130.8,320.9,129.7,321.5,128.4z"/>
		<path class="st1" d="M275.8,182.1V196c0,3.1,3.2,5.6,7.1,5.6c3.9,0,7.1-2.5,7.1-5.6v-13.9c0-3.1-3.2-5.6-7.1-5.6
			C279,176.5,275.8,179,275.8,182.1z M319.6,176.5c-3.6,0-6.6,2.5-6.6,5.6V196c0,3.1,2.9,5.6,6.6,5.6c3.6,0,6.6-2.5,6.6-5.6v-13.9
			C326.2,179,323.2,176.5,319.6,176.5"/>
	</g>
	<g>
		<path class="st1" d="M287,255.3c-0.6,1.6-1.3,2.9-2.3,4c-1,1.1-2.1,2-3.5,2.6c-1.3,0.6-2.8,1-4.3,1c-1.5,0-3-0.3-4.3-1
			c-1.3-0.6-2.5-1.5-3.5-2.6c-1-1.2-1.8-2.5-2.3-4c-0.6-1.6-0.8-3.3-0.8-5c0-1.8,0.3-3.4,0.8-5c0.6-1.6,1.3-2.9,2.3-4
			c1-1.1,2.1-2,3.5-2.6c1.4-0.6,2.8-1,4.3-1c1.5,0,3,0.3,4.3,1c1.3,0.6,2.5,1.5,3.5,2.6c1,1.1,1.7,2.4,2.3,4c0.5,1.6,0.8,3.2,0.8,5
			C287.9,252.1,287.6,253.8,287,255.3 M297.2,242c-1-2.5-2.6-4.8-4.5-6.8c-4-4-9.5-6.2-15.1-6.2c-5.7,0-11.1,2.2-15.2,6.2
			c-1.9,1.9-3.5,4.3-4.5,6.8c-1.1,2.6-1.7,5.5-1.7,8.4c0,3,0.6,5.7,1.7,8.4c1.1,2.6,2.6,4.9,4.5,6.8c4,4,9.5,6.2,15.2,6.2
			c5.7,0,11.1-2.2,15.1-6.2c1.9-1.9,3.4-4.2,4.5-6.8c1.1-2.6,1.7-5.4,1.7-8.4S298.3,244.6,297.2,242 M239,255.3
			c-0.5,1.4-1.2,2.8-2.1,4c-0.9,1.1-1.9,2-3.2,2.6c-1.2,0.6-2.5,1-3.9,1h-6.5v-25.2h6.5c1.4,0,2.7,0.3,3.9,1
			c1.2,0.7,2.3,1.6,3.2,2.7s1.6,2.5,2.1,4c0.5,1.6,0.8,3.2,0.8,5C239.8,252.2,239.5,253.8,239,255.3 M250.1,242
			c-1-2.5-2.6-4.8-4.5-6.8c-1.9-1.9-4.2-3.5-6.7-4.5c-2.6-1.1-5.4-1.7-8.3-1.7h-17.1v42.7h17.1c2.9,0,5.7-0.5,8.3-1.6
			c2.6-1.1,4.8-2.6,6.7-4.5c1.9-1.9,3.4-4.2,4.5-6.8c1.1-2.6,1.6-5.4,1.6-8.3C251.8,247.4,251.2,244.6,250.1,242 M376.7,255.3
			c-0.6,1.6-1.3,2.9-2.3,4c-1,1.1-2.1,2-3.5,2.6c-1.3,0.6-2.8,1-4.3,1c-1.5,0-3-0.3-4.3-1c-1.3-0.6-2.5-1.5-3.5-2.6
			c-1-1.2-1.8-2.5-2.3-4c-0.6-1.6-0.8-3.3-0.8-5c0-1.8,0.3-3.4,0.8-5c0.6-1.6,1.3-2.9,2.3-4c1-1.1,2.2-2,3.5-2.6
			c1.3-0.6,2.8-1,4.3-1c1.6,0,3,0.3,4.3,1c1.4,0.6,2.5,1.5,3.5,2.6c1,1.1,1.7,2.4,2.3,4c0.6,1.6,0.8,3.2,0.8,5
			C377.6,252.1,377.3,253.8,376.7,255.3 M386.8,242c-1-2.5-2.6-4.8-4.5-6.8c-4-4-9.5-6.2-15.1-6.2c-5.7,0-11.1,2.2-15.2,6.2
			c-1.9,1.9-3.5,4.3-4.5,6.8c-1.1,2.6-1.7,5.5-1.6,8.4c0,3,0.5,5.7,1.6,8.4c1.1,2.6,2.6,4.9,4.5,6.8c4,4,9.5,6.2,15.2,6.2
			c5.7,0,11.1-2.2,15.1-6.2c1.9-1.9,3.4-4.2,4.5-6.8c1.1-2.6,1.7-5.4,1.7-8.4S388,244.6,386.8,242 M328.7,255.3
			c-0.5,1.4-1.2,2.8-2.1,4c-0.9,1.1-1.9,2-3.2,2.6c-1.2,0.6-2.5,1-3.9,1H313v-25.2h6.5c1.4,0,2.7,0.3,3.9,1c1.2,0.7,2.3,1.6,3.2,2.7
			s1.6,2.5,2.1,4c0.5,1.6,0.8,3.2,0.8,5C329.4,252.2,329.2,253.8,328.7,255.3 M339.8,242c-1-2.5-2.6-4.8-4.5-6.8
			c-1.9-1.9-4.2-3.5-6.7-4.5c-2.6-1.1-5.4-1.7-8.3-1.7h-17.1v42.7h17.1c2.9,0,5.7-0.5,8.3-1.6c2.6-1.1,4.8-2.6,6.7-4.5
			c1.9-1.9,3.4-4.2,4.5-6.8c1.1-2.6,1.6-5.4,1.6-8.3C341.5,247.4,340.9,244.6,339.8,242"/>
	</g>
</g>
</svg>
