<?xml version="1.0" encoding="utf-8"?>
<!-- Generator: Adobe Illustrator 25.4.1, SVG Export Plug-In . SVG Version: 6.00 Build 0)  -->
<svg width="38" height="38" version="1.0" id="katman_1" xmlns="http://www.w3.org/2000/svg" xmlns:xlink="http://www.w3.org/1999/xlink" x="0px" y="0px"
	 viewBox="0 0 1700 1200" style="enable-background:new 0 0 1700 1200;" xml:space="preserve">
<style type="text/css">
	.st0{fill:#1D1D1B;}
	.st1{fill:url(#SVGID_1_);}
	.st2{fill-rule:evenodd;clip-rule:evenodd;fill:#1D1D1B;}
</style>
<path class="st0" d="M1378.2,407.9l-266.5,381.9h81.8l267.9-381.9H1378.2z"/>
<path class="st0" d="M1202,407.9l78.4,112.5l-40.9,61.4l-121-173.9H1202z"/>
<linearGradient id="SVGID_1_" gradientUnits="userSpaceOnUse" x1="954.161" y1="737.6493" x2="816.2302" y2="923.5948" gradientTransform="matrix(1 0 0 -1 454 1496)">
	<stop  offset="0" style="stop-color:#6966FF"/>
	<stop  offset="1" style="stop-color:#6966FF;stop-opacity:0.36"/>
</linearGradient>
<path class="st1" d="M1386.2,789.7l-86.9-124.5l40.9-59.7L1468,789.7H1386.2z"/>
<path class="st2" d="M1016.2,407.9h71.6v381.9h-71.6v-14.3c-20.7,11.3-44.4,17.7-69.7,17.7c-80.2,0-145.1-64.7-145.1-144.5
	s65-144.5,145.1-144.5c25.2,0,49,6.4,69.7,17.7V407.9z M945.8,729.7c45.4,0,82.2-36.6,82.2-81.8c0-45.2-36.8-81.8-82.2-81.8
	c-45.4,0-82.2,36.6-82.2,81.8C863.6,693.1,900.4,729.7,945.8,729.7z"/>
<path class="st0" d="M808.5,407.9L542.3,789.7h83.5l266-381.9H808.5z"/>
<path class="st0" d="M625.8,407.9l83.5,115.9l-46,64.8L538.9,407.9H625.8z"/>
<path class="st2" d="M446.8,407.9h71.6v381.9h-71.6v-14.3c-20.7,11.3-44.4,17.7-69.7,17.7C297,793.1,232,728.5,232,648.7
	s65-144.5,145.1-144.5c25.2,0,49,6.4,69.7,17.7V407.9z M376.4,729.7c45.4,0,82.2-36.6,82.2-81.8c0-45.2-36.8-81.8-82.2-81.8
	s-82.2,36.6-82.2,81.8C294.2,693.1,331,729.7,376.4,729.7z"/>
</svg>
