<?xml version="1.0" encoding="utf-8"?>
<!-- Generator: Adobe Illustrator 26.0.3, SVG Export Plug-In . SVG Version: 6.00 Build 0)  -->
<svg width="38" height="38" version="1.0" id="katman_1" xmlns="http://www.w3.org/2000/svg" xmlns:xlink="http://www.w3.org/1999/xlink" x="0px" y="0px"
	 viewBox="0 0 800 600" style="enable-background:new 0 0 800 600;" xml:space="preserve">
<style type="text/css">
	.st0{fill:url(#SVGID_1_);}
	.st1{fill:url(#SVGID_00000050629339238878805030000007352662650165998746_);}
	.st2{fill:url(#SVGID_00000180348257057186041830000003770530271378629562_);}
	.st3{fill:url(#SVGID_00000170990702500222052800000017376663432197453959_);}
	.st4{fill:#0E0F23;}
	.st5{fill-rule:evenodd;clip-rule:evenodd;fill:#FFFFFF;}
	.st6{fill:#FFFFFF;}
</style>
<linearGradient id="SVGID_1_" gradientUnits="userSpaceOnUse" x1="580.371" y1="569.3735" x2="280.6739" y2="72.5073" gradientTransform="matrix(1 0 0 -1 -20.9449 604.3622)">
	<stop  offset="0" style="stop-color:#CCCFFF"/>
	<stop  offset="1" style="stop-color:#FFBEDC"/>
</linearGradient>
<circle class="st0" cx="399.8" cy="299.6" r="233.4"/>
<linearGradient id="SVGID_00000183247860112920910010000007878247276623227539_" gradientUnits="userSpaceOnUse" x1="377.0286" y1="453.7451" x2="424.6268" y2="290.2992" gradientTransform="matrix(1 0 0 -1 -20.9449 604.3622)">
	<stop  offset="0" style="stop-color:#03B8FF"/>
	<stop  offset="1" style="stop-color:#FA52A0"/>
</linearGradient>
<path style="fill:url(#SVGID_00000183247860112920910010000007878247276623227539_);" d="M309,173.9l240,163.9l-59.4,87.7
	l-240-165.2L309,173.9z"/>
<linearGradient id="SVGID_00000023962434824040880420000016248504236088485816_" gradientUnits="userSpaceOnUse" x1="416.0317" y1="465.1027" x2="463.6312" y2="301.6554" gradientTransform="matrix(1 0 0 -1 -20.9449 604.3622)">
	<stop  offset="0" style="stop-color:#03B8FF"/>
	<stop  offset="1" style="stop-color:#FA52A0"/>
</linearGradient>
<path style="fill:url(#SVGID_00000023962434824040880420000016248504236088485816_);" d="M549,337.8
	c-20.6,29.7-90.3,18.1-156.1-28.4c-67.1-45.2-103.2-105.8-83.9-135.5c20.6-29.7,90.3-18.1,156.1,28.4
	C532.2,246.2,568.4,308.1,549,337.8z"/>
<linearGradient id="SVGID_00000148647668988150947660000015644083168090100383_" gradientUnits="userSpaceOnUse" x1="338.4943" y1="442.5227" x2="386.0938" y2="279.0755" gradientTransform="matrix(1 0 0 -1 -20.9449 604.3622)">
	<stop  offset="0" style="stop-color:#03B8FF"/>
	<stop  offset="1" style="stop-color:#FA52A0"/>
</linearGradient>
<path style="fill:url(#SVGID_00000148647668988150947660000015644083168090100383_);" d="M489.7,424.3
	c-20.6,29.7-90.3,18.1-156.1-28.4c-65.8-46.5-103.2-105.8-82.6-136.8c20.6-29.7,90.3-18.1,156.1,28.4
	C472.9,333.9,509,394.6,489.7,424.3z"/>
<path class="st4" d="M549,337.8l-59.4,87.7c-20.6,29.7-90.3,16.8-156.1-28.4c-12.9-9-24.5-18.1-36.1-28.4c9-1.3,20.6-6.5,32.3-19.4
	c20.6-21.9,31-27.1,40-25.8c9,0,19.4,9,36.1,31c16.8,21.9,40,28.4,54.2,16.8c1.3-1.3,2.6-1.3,3.9-2.6c11.6-9,15.5-12.9,37.4-54.2
	c5.2-10.3,23.2-27.1,47.7-19.4C555.5,312,555.5,326.2,549,337.8z"/>
<path class="st5" d="M540,332.7c-18.1,25.8-81.3,12.9-141.9-29.7c-61.9-42.6-98.1-96.8-80-122.6c18.1-25.8,81.3-12.9,141.9,29.7
	C520.6,252.7,556.8,306.8,540,332.7z M483.2,293.9c-9,12.9-40,6.5-71-14.2c-29.7-20.6-47.7-47.7-38.7-60.6c9-12.9,40-6.5,71,14.2
	C474.2,253.9,492.2,281,483.2,293.9z"/>
<path class="st6" d="M303.8,203.6c0-1.3-1.3-2.6-2.6-1.3c-1.3,1.3-2.6,1.3-2.6,2.6c1.3,3.9,2.6,6.5,2.6,9c0,1.3,1.3,2.6,2.6,1.3
	c1.3,0,2.6-1.3,1.3-2.6C305.1,210.1,305.1,207.5,303.8,203.6z"/>
<path class="st6" d="M310.3,224.3c0-1.3-1.3-2.6-2.6-1.3c-1.3,1.3-1.3,1.3-1.3,2.6c14.2,32.3,43.9,67.1,82.6,92.9
	c1.3,1.3,2.6,0,3.9,0c1.3-1.3,0-2.6,0-3.9C352.9,288.8,324.5,255.2,310.3,224.3z"/>
<path class="st6" d="M466.4,350.7c-1.3,0-2.6,0-2.6,1.3c0,1.3,0,2.6,1.3,2.6c3.9,1.3,9,2.6,12.9,3.9c1.3,0,2.6,0,2.6-1.3
	c0-1.3,0-2.6-1.3-2.6C475.5,353.3,470.3,352,466.4,350.7z"/>
<path class="st6" d="M489.7,355.9c-1.3,0-2.6,1.3-2.6,2.6c0,1.3,1.3,2.6,2.6,2.6c10.3,1.3,21.9,2.6,31,1.3c1.3,0,2.6-1.3,2.6-2.6
	c0-1.3-1.3-2.6-2.6-2.6C510.3,358.5,500,357.2,489.7,355.9z"/>
</svg>
