<svg width="38" height="38" viewBox="0 0 38 38" fill="none" xmlns="http://www.w3.org/2000/svg">
<g clip-path="url(#clip0_557_791)">
<path d="M33.1604 31.6666C36.1695 28.3051 38 23.8667 38 19C38 14.1333 36.1694 9.69482 33.1603 6.3333L19 4.95654L4.83966 6.3333C1.83061 9.69482 0 14.1333 0 19C0 23.8667 1.83053 28.3051 4.83958 31.6666L19 33.0434L33.1604 31.6666Z" fill="#FFDA44"/>
<path d="M4.8396 6.33331H33.1604C29.6814 2.4467 24.6267 0 18.9999 0C13.3732 0 8.31853 2.4467 4.8396 6.33331Z" fill="black"/>
<path d="M0 19L19 20.6522L38 19C38 16.7791 37.6177 14.6477 36.9173 12.6666H1.0827C0.382301 14.6477 0 16.7791 0 19H0Z" fill="#D80027"/>
<path d="M1.0827 25.3333H36.9174C37.6177 23.3523 38 21.2209 38 19H0C0 21.2209 0.382301 23.3523 1.0827 25.3333V25.3333Z" fill="black"/>
<path d="M33.1604 31.6666H4.8396C8.31853 35.5533 13.3732 38 19 38C24.6268 38 29.6815 35.5533 33.1604 31.6666Z" fill="#D80027"/>
<path d="M25.3402 19C25.3402 22.5019 22.5019 25.3402 19 25.3402C15.4981 25.3402 12.6598 22.5019 12.6598 19C12.6598 15.4981 15.4981 12.6598 19 12.6598C22.5019 12.6598 25.3402 15.4981 25.3402 19Z" fill="white"/>
<path d="M21.3227 19.3233L19 18.3168C19 18.3168 19.5434 16.5131 19.5723 16.3897C19.5935 16.2995 19.6048 16.2054 19.6048 16.1088C19.6048 15.7666 19.4661 15.4568 19.2418 15.2327L19.8259 14.6486C19.4522 14.2749 18.9358 14.0437 18.3656 14.0437C17.7953 14.0437 17.2789 14.2748 16.9052 14.6486L17.4893 15.2327C17.265 15.4569 17.1264 15.7667 17.1264 16.1088C17.1264 16.2339 17.1453 16.3545 17.1798 16.4685L16.3004 17.3478H17.8988C17.8988 17.3478 17.2379 18.3404 16.8772 19.1556C16.5164 19.9706 16.8821 20.9657 17.7159 21.3363L18.198 21.5506L19 22.3044V23.1304L18.1739 23.9565H19.8261V22.3043L20.5799 21.5505H22.1391C22.1466 21.5349 22.1545 21.5198 22.1616 21.5039C22.532 20.6702 22.1565 19.6938 21.3227 19.3233Z" fill="black"/>
</g>
<defs>
<clipPath id="clip0_557_791">
<rect width="38" height="38" fill="white"/>
</clipPath>
</defs>
</svg>
